<svg width="57" height="28" viewBox="0 0 57 28" fill="none" xmlns="http://www.w3.org/2000/svg">
<g clip-path="url(#clip0_286_2204)">
<path d="M51.5429 28H5.79059C2.96989 28 0.666748 25.504 0.666748 22.4263V5.57373C0.666748 2.49598 2.96126 0 5.79059 0H51.5429C54.3636 0 56.6667 2.49598 56.6667 5.57373V22.4263C56.6667 25.4946 54.3722 28 51.5429 28ZM5.79059 1.40751C3.67722 1.40751 1.96065 3.2748 1.96065 5.57373V22.4263C1.96065 24.7252 3.67722 26.5925 5.79059 26.5925H51.5429C53.6563 26.5925 55.3728 24.7252 55.3728 22.4263V5.57373C55.3728 3.2748 53.6563 1.40751 51.5429 1.40751H5.79059Z" fill="#373838"/>
<path d="M51.1202 28H6.21326V22.764H51.1202V28ZM7.50716 26.5925H49.8263V24.1715H7.50716V26.5925Z" fill="#373838"/>
<path d="M51.1202 24.1716H6.21326V21.5818C6.21326 20.118 7.30876 18.9357 8.64579 18.9357H48.6877C50.0333 18.9357 51.1202 20.1274 51.1202 21.5818V24.1716ZM7.50716 22.7641H49.8263V21.5818C49.8263 20.8968 49.3174 20.3432 48.6877 20.3432H8.64579C8.01609 20.3432 7.50716 20.8968 7.50716 21.5818V22.7641Z" fill="#373838"/>
<path d="M39.061 4.5603H16.9871C16.4392 4.5603 15.9951 5.04133 15.9951 5.6347C15.9951 6.22807 16.4392 6.7091 16.9871 6.7091H39.061C39.6089 6.7091 40.053 6.22807 40.053 5.6347C40.053 5.04133 39.6089 4.5603 39.061 4.5603Z" fill="#373838"/>
<path d="M49.4985 4.5603H42.8824C42.3345 4.5603 41.8904 5.04133 41.8904 5.6347C41.8904 6.22807 42.3345 6.7091 42.8824 6.7091H49.4985C50.0464 6.7091 50.4905 6.22807 50.4905 5.6347C50.4905 5.04133 50.0464 4.5603 49.4985 4.5603Z" fill="#373838"/>
</g>
<defs>
<clipPath id="clip0_286_2204">
<rect width="56" height="28" fill="white" transform="translate(0.666748)"/>
</clipPath>
</defs>
</svg>
