<svg width="44" height="43" viewBox="0 0 44 43" fill="none" xmlns="http://www.w3.org/2000/svg">
<g clip-path="url(#clip0_495_219)">
<path d="M24.0001 7V0.46C24.9252 0.809335 25.7654 1.35131 26.4651 2.05L29.9491 5.536C30.6486 6.23488 31.191 7.07489 31.5401 8H25.0001C24.7349 8 24.4806 7.89464 24.293 7.70711C24.1055 7.51957 24.0001 7.26522 24.0001 7ZM32.0001 10.485V19C31.9985 20.3256 31.4712 21.5964 30.5339 22.5338C29.5966 23.4711 28.3257 23.9984 27.0001 24H17.0001C15.6745 23.9984 14.4037 23.4711 13.4663 22.5338C12.529 21.5964 12.0017 20.3256 12.0001 19V5C12.0017 3.67441 12.529 2.40356 13.4663 1.46622C14.4037 0.528882 15.6745 0.00158786 17.0001 0L21.5151 0C21.6781 0 21.8391 0.013 22.0001 0.024V7C22.0001 7.79565 22.3162 8.55871 22.8788 9.12132C23.4414 9.68393 24.2045 10 25.0001 10H31.9761C31.9871 10.161 32.0001 10.322 32.0001 10.485ZM24.0001 19C24.0001 18.7348 23.8948 18.4804 23.7072 18.2929C23.5197 18.1054 23.2653 18 23.0001 18H18.0001C17.7349 18 17.4806 18.1054 17.293 18.2929C17.1055 18.4804 17.0001 18.7348 17.0001 19C17.0001 19.2652 17.1055 19.5196 17.293 19.7071C17.4806 19.8946 17.7349 20 18.0001 20H23.0001C23.2653 20 23.5197 19.8946 23.7072 19.7071C23.8948 19.5196 24.0001 19.2652 24.0001 19ZM27.0001 15C27.0001 14.7348 26.8948 14.4804 26.7072 14.2929C26.5197 14.1054 26.2653 14 26.0001 14H18.0001C17.7349 14 17.4806 14.1054 17.293 14.2929C17.1055 14.4804 17.0001 14.7348 17.0001 15C17.0001 15.2652 17.1055 15.5196 17.293 15.7071C17.4806 15.8946 17.7349 16 18.0001 16H26.0001C26.2653 16 26.5197 15.8946 26.7072 15.7071C26.8948 15.5196 27.0001 15.2652 27.0001 15Z" fill="#B2B2B2"/>
</g>
<path d="M6.10352 27.6055L3.55469 35H2.01367L5.22461 26.4688H6.20898L6.10352 27.6055ZM8.23633 35L5.68164 27.6055L5.57031 26.4688H6.56055L9.7832 35H8.23633ZM8.11328 31.8359V33.002H3.47266V31.8359H8.11328ZM13.1875 33.9922C13.418 33.9922 13.625 33.9473 13.8086 33.8574C13.9961 33.7637 14.1465 33.6348 14.2598 33.4707C14.377 33.3066 14.4414 33.1172 14.4531 32.9023H15.7832C15.7754 33.3125 15.6543 33.6855 15.4199 34.0215C15.1855 34.3574 14.875 34.625 14.4883 34.8242C14.1016 35.0195 13.6738 35.1172 13.2051 35.1172C12.7207 35.1172 12.2988 35.0352 11.9395 34.8711C11.5801 34.7031 11.2812 34.4727 11.043 34.1797C10.8047 33.8867 10.625 33.5488 10.5039 33.166C10.3867 32.7832 10.3281 32.373 10.3281 31.9355V31.7305C10.3281 31.293 10.3867 30.8828 10.5039 30.5C10.625 30.1133 10.8047 29.7734 11.043 29.4805C11.2812 29.1875 11.5801 28.959 11.9395 28.7949C12.2988 28.627 12.7188 28.543 13.1992 28.543C13.707 28.543 14.1523 28.6445 14.5352 28.8477C14.918 29.0469 15.2188 29.3262 15.4375 29.6855C15.6602 30.041 15.7754 30.4551 15.7832 30.9277H14.4531C14.4414 30.6934 14.3828 30.4824 14.2773 30.2949C14.1758 30.1035 14.0312 29.9512 13.8438 29.8379C13.6602 29.7246 13.4395 29.668 13.1816 29.668C12.8965 29.668 12.6602 29.7266 12.4727 29.8438C12.2852 29.957 12.1387 30.1133 12.0332 30.3125C11.9277 30.5078 11.8516 30.7285 11.8047 30.9746C11.7617 31.2168 11.7402 31.4688 11.7402 31.7305V31.9355C11.7402 32.1973 11.7617 32.4512 11.8047 32.6973C11.8477 32.9434 11.9219 33.1641 12.0273 33.3594C12.1367 33.5508 12.2852 33.7051 12.4727 33.8223C12.6602 33.9355 12.8984 33.9922 13.1875 33.9922ZM19.7734 28.6602V29.6914H16.1992V28.6602H19.7734ZM17.2305 27.1074H18.6426V33.248C18.6426 33.4434 18.6699 33.5938 18.7246 33.6992C18.7832 33.8008 18.8633 33.8691 18.9648 33.9043C19.0664 33.9395 19.1855 33.957 19.3223 33.957C19.4199 33.957 19.5137 33.9512 19.6035 33.9395C19.6934 33.9277 19.7656 33.916 19.8203 33.9043L19.8262 34.9824C19.709 35.0176 19.5723 35.0488 19.416 35.0762C19.2637 35.1035 19.0879 35.1172 18.8887 35.1172C18.5645 35.1172 18.2773 35.0605 18.0273 34.9473C17.7773 34.8301 17.582 34.6406 17.4414 34.3789C17.3008 34.1172 17.2305 33.7695 17.2305 33.3359V27.1074ZM22.375 28.6602V35H20.957V28.6602H22.375ZM20.8633 26.9961C20.8633 26.7812 20.9336 26.6035 21.0742 26.4629C21.2188 26.3184 21.418 26.2461 21.6719 26.2461C21.9219 26.2461 22.1191 26.3184 22.2637 26.4629C22.4082 26.6035 22.4805 26.7812 22.4805 26.9961C22.4805 27.207 22.4082 27.3828 22.2637 27.5234C22.1191 27.6641 21.9219 27.7344 21.6719 27.7344C21.418 27.7344 21.2188 27.6641 21.0742 27.5234C20.9336 27.3828 20.8633 27.207 20.8633 26.9961ZM25.9844 33.8809L27.5371 28.6602H29.002L26.7988 35H25.8848L25.9844 33.8809ZM24.7949 28.6602L26.377 33.9043L26.4531 35H25.5391L23.3242 28.6602H24.7949ZM31.3867 28.6602V35H29.9688V28.6602H31.3867ZM29.875 26.9961C29.875 26.7812 29.9453 26.6035 30.0859 26.4629C30.2305 26.3184 30.4297 26.2461 30.6836 26.2461C30.9336 26.2461 31.1309 26.3184 31.2754 26.4629C31.4199 26.6035 31.4922 26.7812 31.4922 26.9961C31.4922 27.207 31.4199 27.3828 31.2754 27.5234C31.1309 27.6641 30.9336 27.7344 30.6836 27.7344C30.4297 27.7344 30.2305 27.6641 30.0859 27.5234C29.9453 27.3828 29.875 27.207 29.875 26.9961ZM35.8398 28.6602V29.6914H32.2656V28.6602H35.8398ZM33.2969 27.1074H34.709V33.248C34.709 33.4434 34.7363 33.5938 34.791 33.6992C34.8496 33.8008 34.9297 33.8691 35.0312 33.9043C35.1328 33.9395 35.252 33.957 35.3887 33.957C35.4863 33.957 35.5801 33.9512 35.6699 33.9395C35.7598 33.9277 35.832 33.916 35.8867 33.9043L35.8926 34.9824C35.7754 35.0176 35.6387 35.0488 35.4824 35.0762C35.3301 35.1035 35.1543 35.1172 34.9551 35.1172C34.6309 35.1172 34.3438 35.0605 34.0938 34.9473C33.8438 34.8301 33.6484 34.6406 33.5078 34.3789C33.3672 34.1172 33.2969 33.7695 33.2969 33.3359V27.1074ZM38.7695 34.3086L40.4922 28.6602H42.0039L39.4609 35.9668C39.4023 36.123 39.3262 36.293 39.2324 36.4766C39.1387 36.6602 39.0156 36.834 38.8633 36.998C38.7148 37.166 38.5293 37.3008 38.3066 37.4023C38.084 37.5078 37.8145 37.5605 37.498 37.5605C37.373 37.5605 37.252 37.5488 37.1348 37.5254C37.0215 37.5059 36.9141 37.4844 36.8125 37.4609L36.8066 36.3828C36.8457 36.3867 36.8926 36.3906 36.9473 36.3945C37.0059 36.3984 37.0527 36.4004 37.0879 36.4004C37.3223 36.4004 37.5176 36.3711 37.6738 36.3125C37.8301 36.2578 37.957 36.168 38.0547 36.043C38.1562 35.918 38.2422 35.75 38.3125 35.5391L38.7695 34.3086ZM37.7969 28.6602L39.3027 33.4062L39.5547 34.8945L38.5762 35.1465L36.2734 28.6602H37.7969Z" fill="#B2B2B2"/>
<defs>
<clipPath id="clip0_495_219">
<rect width="24" height="24" fill="white" transform="translate(10)"/>
</clipPath>
</defs>
</svg>
