<svg width="33" height="33" viewBox="0 0 33 33" fill="none" xmlns="http://www.w3.org/2000/svg">
<path d="M29 16.5C29 16.8978 28.842 17.2794 28.5607 17.5607C28.2793 17.842 27.8978 18 27.5 18H9.12499L15.565 24.4388C15.8468 24.7206 16.0051 25.1027 16.0051 25.5013C16.0051 25.8998 15.8468 26.282 15.565 26.5638C15.2832 26.8456 14.901 27.0039 14.5025 27.0039C14.104 27.0039 13.7218 26.8456 13.44 26.5638L4.43999 17.5638C4.30015 17.4244 4.1892 17.2588 4.11349 17.0765C4.03778 16.8942 3.99881 16.6987 3.99881 16.5013C3.99881 16.3038 4.03778 16.1084 4.11349 15.926C4.1892 15.7437 4.30015 15.5781 4.43999 15.4388L13.44 6.43876C13.5795 6.29923 13.7452 6.18855 13.9275 6.11304C14.1098 6.03752 14.3052 5.99866 14.5025 5.99866C14.6998 5.99866 14.8952 6.03752 15.0775 6.11304C15.2598 6.18855 15.4255 6.29923 15.565 6.43876C15.7045 6.57829 15.8152 6.74393 15.8907 6.92624C15.9662 7.10854 16.0051 7.30393 16.0051 7.50126C16.0051 7.69858 15.9662 7.89398 15.8907 8.07628C15.8152 8.25858 15.7045 8.42423 15.565 8.56376L9.12499 15H27.5C27.8978 15 28.2793 15.158 28.5607 15.4393C28.842 15.7207 29 16.1022 29 16.5Z" fill="#343330"/>
</svg>
