<svg width="25" height="24" viewBox="0 0 25 24" fill="none" xmlns="http://www.w3.org/2000/svg">
<path d="M15.8998 9.88L11.3098 5.29C11.1225 5.10375 10.869 4.99921 10.6048 4.99921C10.3406 4.99921 10.0872 5.10375 9.89983 5.29C9.8061 5.38296 9.73171 5.49356 9.68094 5.61542C9.63017 5.73728 9.60403 5.86799 9.60403 6C9.60403 6.13201 9.63017 6.26272 9.68094 6.38458C9.73171 6.50644 9.8061 6.61704 9.89983 6.71L14.4998 11.29C14.5936 11.383 14.668 11.4936 14.7187 11.6154C14.7695 11.7373 14.7956 11.868 14.7956 12C14.7956 12.132 14.7695 12.2627 14.7187 12.3846C14.668 12.5064 14.5936 12.617 14.4998 12.71L9.89983 17.29C9.71153 17.477 9.60521 17.7311 9.60428 17.9965C9.60334 18.2618 9.70786 18.5167 9.89483 18.705C10.0818 18.8933 10.3359 18.9996 10.6013 19.0006C10.8667 19.0015 11.1215 18.897 11.3098 18.71L15.8998 14.12C16.4616 13.5575 16.7772 12.795 16.7772 12C16.7772 11.205 16.4616 10.4425 15.8998 9.88Z" fill="#666666"/>
</svg>
