<svg width="23" height="22" viewBox="0 0 23 22" fill="none" xmlns="http://www.w3.org/2000/svg">
<g clip-path="url(#clip0_108_5091)">
<path d="M20.8621 12.7223L19.1468 6.5874C18.644 4.79013 17.5513 3.2115 16.0424 2.10244C14.5335 0.993369 12.695 0.417514 10.8191 0.466407C8.94316 0.515299 7.13751 1.18613 5.68914 2.37227C4.24077 3.55842 3.23281 5.1918 2.82547 7.01278L1.49748 12.9493C1.35079 13.6053 1.35419 14.2856 1.50741 14.9401C1.66063 15.5946 1.95976 16.2065 2.38273 16.7307C2.8057 17.2549 3.34169 17.6779 3.95115 17.9686C4.56061 18.2593 5.22796 18.4102 5.90394 18.4102H6.90963C7.11684 19.4246 7.67043 20.3365 8.47662 20.9916C9.28282 21.6466 10.292 22.0045 11.3332 22.0045C12.3745 22.0045 13.3837 21.6466 14.1899 20.9916C14.9961 20.3365 15.5497 19.4246 15.7569 18.4102H16.5134C17.2093 18.4103 17.8957 18.2504 18.5191 17.943C19.1426 17.6357 19.6861 17.1893 20.1072 16.6386C20.5283 16.0879 20.8156 15.4478 20.9467 14.7685C21.0779 14.0891 21.0492 13.3888 20.863 12.7223H20.8621ZM11.3332 20.2051C10.7751 20.2028 10.2313 20.0291 9.77623 19.7078C9.32116 19.3865 8.97707 18.9333 8.79102 18.4102H13.8755C13.6894 18.9333 13.3453 19.3865 12.8903 19.7078C12.4352 20.0291 11.8914 20.2028 11.3332 20.2051V20.2051ZM18.6692 15.5519C18.4177 15.8836 18.0917 16.1525 17.7173 16.3371C17.3429 16.5217 16.9304 16.617 16.5125 16.6153H5.90394C5.4984 16.6153 5.09805 16.5247 4.73244 16.3502C4.36684 16.1758 4.04531 15.9219 3.79159 15.6074C3.53787 15.2929 3.35843 14.9258 3.26653 14.5332C3.17463 14.1405 3.1726 13.7323 3.26061 13.3388L4.58769 7.40137C4.90759 5.97105 5.69929 4.68807 6.83692 3.75639C7.97456 2.82471 9.39284 2.29781 10.8663 2.25944C12.3398 2.22106 13.7839 2.67343 14.969 3.54461C16.1542 4.4158 17.0123 5.65581 17.4071 7.06753L19.1224 13.2024C19.2358 13.6021 19.2538 14.0225 19.1751 14.4304C19.0965 14.8382 18.9232 15.2222 18.6692 15.5519V15.5519Z" fill="white"/>
</g>
<defs>
<clipPath id="clip0_108_5091">
<rect width="21.6667" height="21.5385" fill="white" transform="translate(0.5 0.461548)"/>
</clipPath>
</defs>
</svg>
