<svg width="15" height="15" viewBox="0 0 15 15" fill="none" xmlns="http://www.w3.org/2000/svg">
<g clip-path="url(#clip0_132_2531)">
<path d="M2.16194 13.9133C2.48046 14.0494 2.83262 14.0864 3.17248 14.0194C3.51233 13.9524 3.82409 13.7845 4.0671 13.5376L7.50002 10.1234L10.9329 13.5376C11.093 13.7 11.2837 13.8291 11.494 13.9173C11.7042 14.0055 11.9299 14.0511 12.1579 14.0515C12.3923 14.0509 12.6243 14.0039 12.8404 13.9133C13.1616 13.7833 13.4361 13.5595 13.628 13.2712C13.82 12.9828 13.9206 12.6433 13.9167 12.2969V3.09245C13.9158 2.31918 13.6082 1.57786 13.0614 1.03108C12.5146 0.484296 11.7733 0.176708 11 0.175781L4.00002 0.175781C3.22676 0.176708 2.48543 0.484296 1.93865 1.03108C1.39187 1.57786 1.08428 2.31918 1.08335 3.09245V12.2969C1.07959 12.6435 1.18052 12.9833 1.37296 13.2717C1.56539 13.5601 1.84037 13.7837 2.16194 13.9133V13.9133Z" fill="#62BEC1"/>
</g>
<defs>
<clipPath id="clip0_132_2531">
<rect width="14" height="14" fill="white" transform="translate(0.5 0.175781)"/>
</clipPath>
</defs>
</svg>
