<svg width="24" height="25" viewBox="0 0 24 25" fill="none" xmlns="http://www.w3.org/2000/svg">
<g clip-path="url(#clip0_169_1897)">
<path d="M0 19.5001C0.00158786 20.8257 0.528882 22.0966 1.46622 23.0339C2.40356 23.9712 3.67441 24.4985 5 24.5001H19C20.3256 24.4985 21.5964 23.9712 22.5338 23.0339C23.4711 22.0966 23.9984 20.8257 24 19.5001V10.5001H0V19.5001ZM17 15.0001C17.2967 15.0001 17.5867 15.0881 17.8334 15.2529C18.08 15.4177 18.2723 15.652 18.3858 15.9261C18.4993 16.2002 18.5291 16.5018 18.4712 16.7928C18.4133 17.0837 18.2704 17.351 18.0607 17.5608C17.8509 17.7706 17.5836 17.9134 17.2926 17.9713C17.0017 18.0292 16.7001 17.9995 16.426 17.8859C16.1519 17.7724 15.9176 17.5802 15.7528 17.3335C15.588 17.0868 15.5 16.7968 15.5 16.5001C15.5 16.1023 15.658 15.7208 15.9393 15.4395C16.2206 15.1582 16.6022 15.0001 17 15.0001ZM12 15.0001C12.2967 15.0001 12.5867 15.0881 12.8334 15.2529C13.08 15.4177 13.2723 15.652 13.3858 15.9261C13.4994 16.2002 13.5291 16.5018 13.4712 16.7928C13.4133 17.0837 13.2704 17.351 13.0607 17.5608C12.8509 17.7706 12.5836 17.9134 12.2926 17.9713C12.0017 18.0292 11.7001 17.9995 11.426 17.8859C11.1519 17.7724 10.9176 17.5802 10.7528 17.3335C10.588 17.0868 10.5 16.7968 10.5 16.5001C10.5 16.1023 10.658 15.7208 10.9393 15.4395C11.2206 15.1582 11.6022 15.0001 12 15.0001ZM7 15.0001C7.29667 15.0001 7.58668 15.0881 7.83336 15.2529C8.08003 15.4177 8.27229 15.652 8.38582 15.9261C8.49935 16.2002 8.52906 16.5018 8.47118 16.7928C8.4133 17.0837 8.27044 17.351 8.06066 17.5608C7.85088 17.7706 7.58361 17.9134 7.29264 17.9713C7.00166 18.0292 6.70006 17.9995 6.42597 17.8859C6.15189 17.7724 5.91762 17.5802 5.7528 17.3335C5.58797 17.0868 5.5 16.7968 5.5 16.5001C5.5 16.1023 5.65804 15.7208 5.93934 15.4395C6.22064 15.1582 6.60218 15.0001 7 15.0001Z" fill="#9496A1"/>
<path d="M19 2.5H18V1.5C18 1.23478 17.8946 0.98043 17.7071 0.792893C17.5196 0.605357 17.2652 0.5 17 0.5C16.7348 0.5 16.4804 0.605357 16.2929 0.792893C16.1054 0.98043 16 1.23478 16 1.5V2.5H8V1.5C8 1.23478 7.89464 0.98043 7.70711 0.792893C7.51957 0.605357 7.26522 0.5 7 0.5C6.73478 0.5 6.48043 0.605357 6.29289 0.792893C6.10536 0.98043 6 1.23478 6 1.5V2.5H5C3.67441 2.50159 2.40356 3.02888 1.46622 3.96622C0.528882 4.90356 0.00158786 6.17441 0 7.5L0 8.5H24V7.5C23.9984 6.17441 23.4711 4.90356 22.5338 3.96622C21.5964 3.02888 20.3256 2.50159 19 2.5Z" fill="#9496A1"/>
</g>
<defs>
<clipPath id="clip0_169_1897">
<rect width="24" height="24" fill="white" transform="translate(0 0.5)"/>
</clipPath>
</defs>
</svg>
