<svg width="28" height="28" viewBox="0 0 28 28" fill="none" xmlns="http://www.w3.org/2000/svg">
<path d="M26.25 12.4688H23.0223L18.2208 7.66719C18.0788 7.52471 17.91 7.41174 17.7242 7.33477C17.5383 7.25781 17.3391 7.21838 17.138 7.21875H4.84313C4.59106 7.21868 4.34287 7.28083 4.12059 7.3997C3.89831 7.51857 3.70881 7.69048 3.56891 7.90016L0.328127 12.7608C0.25652 12.8687 0.218463 12.9955 0.218752 13.125V18.375C0.218752 18.7811 0.380079 19.1706 0.667244 19.4578C0.954409 19.7449 1.34389 19.9063 1.75 19.9063H3.78438C3.935 20.648 4.33742 21.3149 4.92346 21.7939C5.5095 22.2729 6.24311 22.5345 7 22.5345C7.75689 22.5345 8.49051 22.2729 9.07655 21.7939C9.66259 21.3149 10.065 20.648 10.2156 19.9063H17.7844C17.935 20.648 18.3374 21.3149 18.9235 21.7939C19.5095 22.2729 20.2431 22.5345 21 22.5345C21.7569 22.5345 22.4905 22.2729 23.0765 21.7939C23.6626 21.3149 24.065 20.648 24.2156 19.9063H26.25C26.6561 19.9063 27.0456 19.7449 27.3328 19.4578C27.6199 19.1706 27.7813 18.7811 27.7813 18.375V14C27.7813 13.5939 27.6199 13.2044 27.3328 12.9172C27.0456 12.6301 26.6561 12.4688 26.25 12.4688ZM4.66156 8.6286C4.68151 8.59871 4.7085 8.57419 4.74017 8.55721C4.77184 8.54023 4.8072 8.53132 4.84313 8.53125H17.138C17.1959 8.5315 17.2514 8.5547 17.2922 8.59578L21.1663 12.4688H2.1011L4.66156 8.6286ZM7 21.2188C6.61062 21.2188 6.22998 21.1033 5.90622 20.887C5.58246 20.6706 5.33012 20.3632 5.18111 20.0034C5.0321 19.6437 4.99312 19.2478 5.06908 18.8659C5.14505 18.484 5.33255 18.1332 5.60789 17.8579C5.88322 17.5826 6.23402 17.395 6.61592 17.3191C6.99782 17.2431 7.39367 17.2821 7.75341 17.4311C8.11315 17.5801 8.42063 17.8325 8.63696 18.1562C8.85329 18.48 8.96875 18.8606 8.96875 19.25C8.96875 19.7721 8.76133 20.2729 8.39212 20.6421C8.02291 21.0113 7.52215 21.2188 7 21.2188ZM21 21.2188C20.6106 21.2188 20.23 21.1033 19.9062 20.887C19.5825 20.6706 19.3301 20.3632 19.1811 20.0034C19.0321 19.6437 18.9931 19.2478 19.0691 18.8659C19.145 18.484 19.3326 18.1332 19.6079 17.8579C19.8832 17.5826 20.234 17.395 20.6159 17.3191C20.9978 17.2431 21.3937 17.2821 21.7534 17.4311C22.1132 17.5801 22.4206 17.8325 22.637 18.1562C22.8533 18.48 22.9688 18.8606 22.9688 19.25C22.9688 19.7721 22.7613 20.2729 22.3921 20.6421C22.0229 21.0113 21.5221 21.2188 21 21.2188ZM26.4688 18.375C26.4688 18.433 26.4457 18.4887 26.4047 18.5297C26.3637 18.5707 26.308 18.5938 26.25 18.5938H24.2156C24.065 17.852 23.6626 17.1851 23.0765 16.7061C22.4905 16.2271 21.7569 15.9655 21 15.9655C20.2431 15.9655 19.5095 16.2271 18.9235 16.7061C18.3374 17.1851 17.935 17.852 17.7844 18.5938H10.2156C10.065 17.852 9.66259 17.1851 9.07655 16.7061C8.49051 16.2271 7.75689 15.9655 7 15.9655C6.24311 15.9655 5.5095 16.2271 4.92346 16.7061C4.33742 17.1851 3.935 17.852 3.78438 18.5938H1.75C1.69199 18.5938 1.63635 18.5707 1.59532 18.5297C1.5543 18.4887 1.53125 18.433 1.53125 18.375V13.7813H26.25C26.308 13.7813 26.3637 13.8043 26.4047 13.8453C26.4457 13.8863 26.4688 13.942 26.4688 14V18.375Z" fill="#373838"/>
</svg>
