<svg width="21" height="20" viewBox="0 0 21 20" fill="none" xmlns="http://www.w3.org/2000/svg">
<circle cx="10.5" cy="10" r="10" fill="#F3F4F8"/>
<path d="M7.68687 7.508C7.74287 6.772 8.02687 6.196 8.53887 5.78C9.05087 5.364 9.71487 5.156 10.5309 5.156C11.0749 5.156 11.5429 5.256 11.9349 5.456C12.3349 5.648 12.6349 5.912 12.8349 6.248C13.0429 6.584 13.1469 6.964 13.1469 7.388C13.1469 7.884 13.0029 8.312 12.7149 8.672C12.4349 9.032 12.0669 9.264 11.6109 9.368V9.428C12.1309 9.556 12.5429 9.808 12.8469 10.184C13.1509 10.56 13.3029 11.052 13.3029 11.66C13.3029 12.116 13.1989 12.528 12.9909 12.896C12.7829 13.256 12.4709 13.54 12.0549 13.748C11.6389 13.956 11.1389 14.06 10.5549 14.06C9.70687 14.06 9.01087 13.84 8.46687 13.4C7.92287 12.952 7.61887 12.32 7.55487 11.504H8.61087C8.66687 11.984 8.86287 12.376 9.19887 12.68C9.53487 12.984 9.98287 13.136 10.5429 13.136C11.1029 13.136 11.5269 12.992 11.8149 12.704C12.1109 12.408 12.2589 12.028 12.2589 11.564C12.2589 10.964 12.0589 10.532 11.6589 10.268C11.2589 10.004 10.6549 9.872 9.84687 9.872H9.57087V8.96H9.85887C10.5949 8.952 11.1509 8.832 11.5269 8.6C11.9029 8.36 12.0909 7.992 12.0909 7.496C12.0909 7.072 11.9509 6.732 11.6709 6.476C11.3989 6.22 11.0069 6.092 10.4949 6.092C9.99887 6.092 9.59887 6.22 9.29487 6.476C8.99087 6.732 8.81087 7.076 8.75487 7.508H7.68687Z" fill="#62BEC1"/>
</svg>
