<svg width="21" height="20" viewBox="0 0 21 20" fill="none" xmlns="http://www.w3.org/2000/svg">
<circle cx="10.5" cy="10" r="10" fill="#F3F4F8"/>
<path d="M7.6609 13.124C8.6769 12.308 9.4729 11.64 10.0489 11.12C10.6249 10.592 11.1089 10.044 11.5009 9.476C11.9009 8.9 12.1009 8.336 12.1009 7.784C12.1009 7.264 11.9729 6.856 11.7169 6.56C11.4689 6.256 11.0649 6.104 10.5049 6.104C9.9609 6.104 9.5369 6.276 9.2329 6.62C8.9369 6.956 8.7769 7.408 8.7529 7.976H7.6969C7.7289 7.08 8.0009 6.388 8.5129 5.9C9.0249 5.412 9.6849 5.168 10.4929 5.168C11.3169 5.168 11.9689 5.396 12.4489 5.852C12.9369 6.308 13.1809 6.936 13.1809 7.736C13.1809 8.4 12.9809 9.048 12.5809 9.68C12.1889 10.304 11.7409 10.856 11.2369 11.336C10.7329 11.808 10.0889 12.36 9.3049 12.992H13.4329V13.904H7.6609V13.124Z" fill="#62BEC1"/>
</svg>
