<svg width="40" height="28" viewBox="0 0 40 28" fill="none" xmlns="http://www.w3.org/2000/svg">
<g clip-path="url(#clip0_282_2340)">
<path d="M36.8161 0H3.85069C2.18441 0 0.833374 1.45581 0.833374 3.2513V26.9648C0.833374 27.2074 1.01351 27.4015 1.23869 27.4015H1.55393C1.7791 27.4015 1.95924 27.2074 1.95924 26.9648V10.1421H19.7629V24.7325C19.7629 26.528 21.114 27.9838 22.7803 27.9838H36.801C38.4673 27.9838 39.8184 26.528 39.8184 24.7325V3.2513C39.8184 1.45581 38.4673 0 36.801 0H36.8161ZM1.95924 8.92894V3.2513C1.95924 2.11901 2.8149 1.21317 3.85069 1.21317H19.7629V8.92894H1.95924ZM38.7075 24.7325C38.7075 25.8648 37.8518 26.7707 36.8161 26.7707H22.7953C21.7445 26.7707 20.9038 25.8486 20.9038 24.7325V19.0549H38.7225V24.7325H38.7075ZM38.7075 17.8417H20.8888V10.1259H38.7075V17.8417ZM20.8888 8.91277V1.21317H36.801C37.8518 1.21317 38.6925 2.13518 38.6925 3.2513V8.92894H20.8738L20.8888 8.91277Z" fill="#373838"/>
<path d="M29.8057 3.86597C29.1902 3.86597 28.6948 4.39976 28.6948 5.06296C28.6948 5.72616 29.1902 6.25996 29.8057 6.25996C30.4212 6.25996 30.9165 5.72616 30.9165 5.06296C30.9165 4.39976 30.4212 3.86597 29.8057 3.86597Z" fill="#373838"/>
<path d="M29.8057 14.7845C30.4212 14.7845 30.9165 14.2507 30.9165 13.5875C30.9165 12.9243 30.4212 12.3905 29.8057 12.3905C29.1902 12.3905 28.6948 12.9243 28.6948 13.5875C28.6948 14.2507 29.1902 14.7845 29.8057 14.7845Z" fill="#373838"/>
<path d="M29.8057 24.134C30.4212 24.134 30.9165 23.6002 30.9165 22.937C30.9165 22.2738 30.4212 21.74 29.8057 21.74C29.1902 21.74 28.6948 22.2738 28.6948 22.937C28.6948 23.6002 29.1902 24.134 29.8057 24.134Z" fill="#373838"/>
</g>
<defs>
<clipPath id="clip0_282_2340">
<rect width="39" height="28" fill="white" transform="translate(0.833374)"/>
</clipPath>
</defs>
</svg>
