<svg width="18" height="18" viewBox="0 0 18 18" fill="none" xmlns="http://www.w3.org/2000/svg">
<path d="M14.0324 6.15752C13.9627 6.08722 13.8797 6.03143 13.7883 5.99335C13.6969 5.95527 13.5989 5.93567 13.4999 5.93567C13.4009 5.93567 13.3029 5.95527 13.2115 5.99335C13.1201 6.03143 13.0371 6.08722 12.9674 6.15752L9.5324 9.59251C9.46267 9.66281 9.37972 9.7186 9.28833 9.75668C9.19693 9.79475 9.09891 9.81436 8.9999 9.81436C8.90089 9.81436 8.80286 9.79475 8.71146 9.75668C8.62007 9.7186 8.53712 9.66281 8.4674 9.59251L5.0324 6.15752C4.96267 6.08722 4.87972 6.03143 4.78833 5.99335C4.69693 5.95527 4.59891 5.93567 4.4999 5.93567C4.40089 5.93567 4.30286 5.95527 4.21146 5.99335C4.12007 6.03143 4.03712 6.08722 3.9674 6.15752C3.82771 6.29804 3.7493 6.48813 3.7493 6.68627C3.7493 6.88441 3.82771 7.07449 3.9674 7.21502L7.4099 10.6575C7.83177 11.0789 8.40364 11.3155 8.9999 11.3155C9.59615 11.3155 10.168 11.0789 10.5899 10.6575L14.0324 7.21502C14.1721 7.07449 14.2505 6.88441 14.2505 6.68627C14.2505 6.48813 14.1721 6.29804 14.0324 6.15752V6.15752Z" fill="#373838"/>
</svg>
