<svg width="16" height="17" viewBox="0 0 16 17" fill="none" xmlns="http://www.w3.org/2000/svg">
<g clip-path="url(#clip0_331_2525)">
<path d="M8 0.5C3.58172 0.5 0 4.08172 0 8.5C0 12.9183 3.58172 16.5 8 16.5C12.4183 16.5 16 12.9183 16 8.5C15.9952 4.08369 12.4163 0.504781 8 0.5ZM10.6667 10.2247C10.9376 10.474 10.9551 10.8958 10.7057 11.1667C10.4564 11.4376 10.0346 11.4551 9.76372 11.2057C9.75016 11.1933 9.73716 11.1802 9.72466 11.1667L8 9.44266L6.276 11.1667C6.01116 11.4224 5.58913 11.4151 5.33334 11.1503C5.08384 10.8919 5.08384 10.4823 5.33334 10.224L7.05734 8.5L5.33334 6.776C5.07756 6.51116 5.08491 6.08913 5.34975 5.83334C5.60809 5.58384 6.01766 5.58384 6.276 5.83334L8 7.55734L9.72466 5.83334C9.974 5.56244 10.3958 5.54494 10.6667 5.79428C10.9376 6.04363 10.9551 6.46538 10.7057 6.73628C10.6933 6.74984 10.6802 6.76284 10.6667 6.77534L8.94266 8.5L10.6667 10.2247Z" fill="#DB4E63"/>
</g>
<defs>
<clipPath id="clip0_331_2525">
<rect width="16" height="16" fill="white" transform="translate(0 0.5)"/>
</clipPath>
</defs>
</svg>
