<svg width="19" height="19" viewBox="0 0 19 19" fill="none" xmlns="http://www.w3.org/2000/svg">
<path d="M17.7603 9.32914C17.7364 9.2743 17.1514 7.97703 15.845 6.67063C14.6328 5.45984 12.5501 4.01562 9.49999 4.01562C6.44983 4.01562 4.36718 5.45984 3.15499 6.67063C1.84858 7.97703 1.26358 9.27219 1.23968 9.32914C1.21564 9.38314 1.20322 9.44159 1.20322 9.5007C1.20322 9.55981 1.21564 9.61826 1.23968 9.67227C1.26358 9.72641 1.84858 11.0237 3.15499 12.3301C4.36718 13.5409 6.44983 14.9844 9.49999 14.9844C12.5501 14.9844 14.6328 13.5409 15.845 12.3301C17.1514 11.0237 17.7364 9.72852 17.7603 9.67227C17.7843 9.61826 17.7968 9.55981 17.7968 9.5007C17.7968 9.44159 17.7843 9.38314 17.7603 9.32914ZM9.49999 14.1406C7.29358 14.1406 5.36702 13.3377 3.77304 11.7549C3.10484 11.0909 2.5394 10.3309 2.09538 9.5C2.53928 8.66928 3.10473 7.90949 3.77304 7.24578C5.36702 5.66234 7.29358 4.85938 9.49999 4.85938C11.7064 4.85938 13.633 5.66234 15.2269 7.24578C15.8952 7.90949 16.4607 8.66928 16.9046 9.5C16.4567 10.3585 14.2109 14.1406 9.49999 14.1406ZM9.49999 6.26562C8.86029 6.26562 8.23496 6.45532 7.70307 6.81072C7.17118 7.16611 6.75662 7.67125 6.51182 8.26226C6.26701 8.85326 6.20296 9.50359 6.32776 10.131C6.45256 10.7584 6.76061 11.3347 7.21294 11.787C7.66528 12.2394 8.24159 12.5474 8.86899 12.6722C9.4964 12.797 10.1467 12.733 10.7377 12.4882C11.3287 12.2434 11.8339 11.8288 12.1893 11.2969C12.5447 10.765 12.7344 10.1397 12.7344 9.5C12.7332 8.64253 12.3921 7.82051 11.7858 7.21418C11.1795 6.60786 10.3575 6.26674 9.49999 6.26562ZM9.49999 11.8906C9.02717 11.8906 8.56497 11.7504 8.17183 11.4877C7.77869 11.225 7.47228 10.8517 7.29134 10.4149C7.1104 9.97802 7.06306 9.49735 7.1553 9.03361C7.24754 8.56988 7.47523 8.14391 7.80956 7.80957C8.1439 7.47524 8.56987 7.24755 9.0336 7.15531C9.49734 7.06307 9.97801 7.11041 10.4148 7.29135C10.8517 7.47229 11.225 7.7787 11.4877 8.17184C11.7504 8.56498 11.8906 9.02718 11.8906 9.5C11.8906 10.134 11.6387 10.7421 11.1904 11.1904C10.7421 11.6388 10.134 11.8906 9.49999 11.8906Z" fill="#E5E5E5"/>
</svg>
