<svg width="14" height="12" viewBox="0 0 14 12" fill="none" xmlns="http://www.w3.org/2000/svg">
<path d="M3.325 0H10.675C11.6987 0 12.5359 0.805906 12.5965 1.82293L12.6 1.94118L12.6004 4.30849C13.3678 4.52753 13.9403 5.21449 13.9956 6.04433L14 6.17647V11.4706C14 11.763 13.7649 12 13.475 12C13.2092 12 12.9895 11.8008 12.9548 11.5424L12.95 11.4706V9.88235H1.05V11.4706C1.05 11.7386 0.852495 11.9601 0.596239 11.9952L0.525 12C0.25921 12 0.039557 11.8008 0.004795 11.5424L0 11.4706V6.17647C0 5.28784 0.592172 4.53861 1.40031 4.30828L1.4 1.94118C1.4 0.908802 2.19919 0.0646589 3.20774 0.00354363L3.325 0ZM12.075 5.29412H1.925C1.47195 5.29412 1.09933 5.64134 1.05451 6.08626L1.05 6.17647V8.82353H12.95V6.17647C12.95 5.71962 12.6057 5.34388 12.1645 5.29871L12.075 5.29412ZM10.675 1.05882H3.325C2.87195 1.05882 2.49933 1.40603 2.45451 1.85096L2.45 1.94118V4.23529H3.5C3.5 3.84545 3.8134 3.52941 4.2 3.52941H5.6C5.95896 3.52941 6.25485 3.80191 6.29531 4.15297L6.3 4.23529H7.7C7.7 3.84545 8.01339 3.52941 8.4 3.52941H9.8C10.159 3.52941 10.4548 3.80191 10.4953 4.15297L10.5 4.23529H11.55V1.94118C11.55 1.48432 11.2057 1.10857 10.7645 1.06338L10.675 1.05882Z" fill="#181919"/>
</svg>
