<svg width="14" height="16" viewBox="0 0 14 16" fill="none" xmlns="http://www.w3.org/2000/svg">
<g clip-path="url(#clip0_301_3028)">
<path d="M7.00327 13.6235C10.7317 13.6235 13.7541 10.7396 13.7541 7.18222C13.7541 3.62481 10.7317 0.740967 7.00327 0.740967C3.27489 0.740967 0.252441 3.62481 0.252441 7.18222C0.252441 10.7396 3.27489 13.6235 7.00327 13.6235Z" stroke="#181919" stroke-width="0.75" stroke-miterlimit="10"/>
<path d="M3.34216 13.6361H10.6644C11.6079 13.6361 12.3654 14.3652 12.3654 15.2591H1.63452C1.63452 14.3588 2.39864 13.6361 3.33552 13.6361H3.34216Z" stroke="#181919" stroke-width="0.75" stroke-miterlimit="10"/>
<path d="M7.07642 7.18213C7.07642 8.57689 8.25914 9.70538 9.72093 9.70538C11.1827 9.70538 12.3655 8.57689 12.3655 7.18213H7.07642Z" stroke="#181919" stroke-width="0.75" stroke-miterlimit="10"/>
<path d="M7.01 7.18213C5.5482 7.18213 4.36548 8.31062 4.36548 9.70537C4.36548 11.1001 5.5482 12.2286 7.01 12.2286V7.18213Z" stroke="#181919" stroke-width="0.75" stroke-miterlimit="10"/>
<path d="M7.07642 7.18211C8.53821 7.18211 9.72093 6.05362 9.72093 4.65887C9.72093 3.26411 8.53821 2.13562 7.07642 2.13562V7.18211Z" stroke="#181919" stroke-width="0.75" stroke-miterlimit="10"/>
<path d="M7.00998 7.18218C7.00998 5.78742 5.82726 4.65894 4.36547 4.65894C2.90367 4.65894 1.72095 5.78742 1.72095 7.18218H7.00998Z" stroke="#181919" stroke-width="0.75" stroke-miterlimit="10"/>
<path d="M7.00994 8.02538C7.49801 8.02538 7.89366 7.64787 7.89366 7.18218C7.89366 6.7165 7.49801 6.33899 7.00994 6.33899C6.52188 6.33899 6.12622 6.7165 6.12622 7.18218C6.12622 7.64787 6.52188 8.02538 7.00994 8.02538Z" fill="white" stroke="#181919" stroke-width="0.75" stroke-miterlimit="10"/>
</g>
<defs>
<clipPath id="clip0_301_3028">
<rect width="14" height="15" fill="white" transform="translate(0 0.5)"/>
</clipPath>
</defs>
</svg>
