<svg width="13" height="16" viewBox="0 0 13 16" fill="none" xmlns="http://www.w3.org/2000/svg">
<g clip-path="url(#clip0_301_3038)">
<path d="M1.29621 0.256958H11.7039C12.2849 0.256958 12.7574 0.757381 12.7574 1.37277V2.14369C12.7574 2.448 12.5212 2.69821 12.2338 2.69821H0.766251C0.478923 2.69821 0.242676 2.448 0.242676 2.14369V1.37277C0.242676 0.757381 0.715171 0.256958 1.29621 0.256958Z" stroke="#181919" stroke-width="0.75" stroke-miterlimit="10"/>
<path d="M6.50008 2.69824H0.945068V12.8217H6.50008V2.69824Z" stroke="#181919" stroke-width="0.75" stroke-miterlimit="10"/>
<path d="M5.52316 5.75488H5.30607C5.1756 5.75488 5.06982 5.86691 5.06982 6.00509V7.74305C5.06982 7.88124 5.1756 7.99326 5.30607 7.99326H5.52316C5.65364 7.99326 5.75941 7.88124 5.75941 7.74305V6.00509C5.75941 5.86691 5.65364 5.75488 5.52316 5.75488Z" fill="#181919"/>
<path d="M7.69406 5.75488H7.47697C7.34649 5.75488 7.24072 5.86691 7.24072 6.00509V7.74305C7.24072 7.88124 7.34649 7.99326 7.47697 7.99326H7.69406C7.82454 7.99326 7.93031 7.88124 7.93031 7.74305V6.00509C7.93031 5.86691 7.82454 5.75488 7.69406 5.75488Z" fill="#181919"/>
<path d="M12.055 2.69824H6.5V12.8217H12.055V2.69824Z" stroke="#181919" stroke-width="0.75" stroke-miterlimit="10"/>
<path d="M6.50008 12.8148H0.945068V14.7692H6.50008V12.8148Z" stroke="#181919" stroke-width="0.75" stroke-miterlimit="10"/>
<path d="M1.76855 14.7693H3.3329V15.1818C3.3329 15.4929 3.09026 15.7498 2.79655 15.7498H2.3049C2.01119 15.7498 1.76855 15.4929 1.76855 15.1818V14.7693Z" stroke="#181919" stroke-width="0.75" stroke-miterlimit="10"/>
<path d="M9.78198 14.7693H11.3463V15.1818C11.3463 15.4929 11.1037 15.7498 10.81 15.7498H10.3183C10.0246 15.7498 9.78198 15.4929 9.78198 15.1818V14.7693Z" stroke="#181919" stroke-width="0.75" stroke-miterlimit="10"/>
<path d="M12.055 12.8148H6.5V14.7692H12.055V12.8148Z" stroke="#181919" stroke-width="0.75" stroke-miterlimit="10"/>
</g>
<defs>
<clipPath id="clip0_301_3038">
<rect width="13" height="16" fill="white"/>
</clipPath>
</defs>
</svg>
