<svg width="14" height="10" viewBox="0 0 14 10" fill="none" xmlns="http://www.w3.org/2000/svg">
<g clip-path="url(#clip0_301_3050)">
<path d="M13.7952 3.40271H7V6.59162H13.7952V3.40271Z" stroke="#181919" stroke-width="0.75" stroke-miterlimit="10"/>
<path d="M7.00002 6.59155H13.7952V8.83303C13.7952 9.35296 13.4019 9.78046 12.9115 9.78046H7.87839C7.3934 9.78046 6.99463 9.35874 6.99463 8.83303V6.59155H7.00002Z" stroke="#181919" stroke-width="0.75" stroke-miterlimit="10"/>
<path d="M7 0.219482H12.9169C13.4018 0.219482 13.8006 0.641204 13.8006 1.16691V3.40839H7.00539V0.219482H7Z" stroke="#181919" stroke-width="0.75" stroke-miterlimit="10"/>
<path d="M1.0832 0.219482H7.00006V3.40839H0.204834V1.16691C0.204834 0.641204 0.598214 0.219482 1.0832 0.219482Z" stroke="#181919" stroke-width="0.75" stroke-miterlimit="10"/>
<path d="M10.4002 2.23573C10.6205 2.23573 10.799 2.04434 10.799 1.80824C10.799 1.57213 10.6205 1.38074 10.4002 1.38074C10.18 1.38074 10.0015 1.57213 10.0015 1.80824C10.0015 2.04434 10.18 2.23573 10.4002 2.23573Z" fill="#181919"/>
<path d="M10.4002 5.28017C10.6205 5.28017 10.799 5.08877 10.799 4.85267C10.799 4.61657 10.6205 4.42517 10.4002 4.42517C10.18 4.42517 10.0015 4.61657 10.0015 4.85267C10.0015 5.08877 10.18 5.28017 10.4002 5.28017Z" fill="#181919"/>
<path d="M10.4002 8.61354C10.6205 8.61354 10.799 8.42214 10.799 8.18604C10.799 7.94994 10.6205 7.75854 10.4002 7.75854C10.18 7.75854 10.0015 7.94994 10.0015 8.18604C10.0015 8.42214 10.18 8.61354 10.4002 8.61354Z" fill="#181919"/>
<path d="M0.538462 3.33337H4.58177e-05L0 10H0.538462V3.33337Z" fill="#181919"/>
</g>
<defs>
<clipPath id="clip0_301_3050">
<rect width="14" height="10" fill="white"/>
</clipPath>
</defs>
</svg>
