<svg width="28" height="28" viewBox="0 0 28 28" fill="none" xmlns="http://www.w3.org/2000/svg">
<g clip-path="url(#clip0_282_2309)">
<path d="M21.3156 24.0828H19.0698C24.2924 22.2722 28 17.7515 28 12.4734C28 5.59763 21.7276 0 14.0066 0C6.28571 0 0 5.59763 0 12.4734C0 17.7515 3.72093 22.2722 8.93023 24.0828H6.6711C4.51827 24.0828 2.76412 25.645 2.76412 27.5621V28.0118H25.2226V27.5621C25.2226 25.645 23.4684 24.0828 21.3156 24.0828ZM0.996678 12.4734C0.996678 6.08284 6.83056 0.887574 14.0066 0.887574C21.1827 0.887574 27.0166 6.08284 27.0166 12.4734C27.0166 18.8639 21.1827 24.0592 14.0066 24.0592C6.83056 24.0592 0.996678 18.8521 0.996678 12.4734ZM3.81395 27.1243C4.05316 25.9053 5.24917 24.9823 6.68439 24.9823H21.3289C22.7641 24.9823 23.9601 25.9172 24.1993 27.1243H3.81395Z" fill="#231F20"/>
<path d="M14.5116 22.3432V15.1479C15.5349 16.6272 17.3422 17.6331 19.4419 17.6331C22.6312 17.6331 25.2359 15.3254 25.2359 12.4733V12.0236H17.3953C18.9369 11.1006 19.9468 9.52659 19.9468 7.75144C19.9468 4.9112 17.3555 2.59167 14.1528 2.59167H13.6478V9.78694C12.6246 8.30765 10.8173 7.30173 8.7176 7.30173C5.52823 7.30173 2.92358 9.60943 2.92358 12.4615V12.9112H10.7641C9.22259 13.8343 8.21262 15.4082 8.21262 17.1834C8.21262 20.0236 10.804 22.3432 14.0066 22.3432H14.5116ZM19.4419 16.7455C17.5017 16.7455 15.8538 15.7159 15.0963 14.2366C15.6545 13.9645 16.0797 13.4911 16.2259 12.9112H24.2126C23.9601 15.0532 21.9136 16.7337 19.4419 16.7337V16.7455ZM18.9369 7.76327C18.9369 9.50292 17.7541 10.994 16.0797 11.6568C15.814 11.1242 15.2824 10.7219 14.6445 10.5562V3.51475C17.0498 3.7396 18.9369 5.56209 18.9369 7.76327ZM8.7176 8.21298C10.6312 8.21298 12.2791 9.21889 13.0365 10.6627C12.412 10.923 11.9468 11.4319 11.8007 12.0355H3.96013C4.21262 9.89345 6.25913 8.21298 8.73089 8.21298H8.7176ZM9.22259 17.1952C9.22259 15.4911 10.3522 14.0236 11.9734 13.3491C12.2658 13.9053 12.8372 14.3195 13.5149 14.4497V21.4437C11.1096 21.2189 9.22259 19.3964 9.22259 17.1952Z" fill="#231F20"/>
</g>
<defs>
<clipPath id="clip0_282_2309">
<rect width="28" height="28" fill="white"/>
</clipPath>
</defs>
</svg>
