<svg width="20" height="21" viewBox="0 0 20 21" fill="none" xmlns="http://www.w3.org/2000/svg">
<path d="M9.28635 15.4023H3.89258" stroke="#373838" stroke-width="1.5" stroke-linecap="round" stroke-linejoin="round"/>
<path fill-rule="evenodd" clip-rule="evenodd" d="M12.6708 15.4031C12.6708 17.1046 13.2382 17.6713 14.9389 17.6713C16.6397 17.6713 17.2071 17.1046 17.2071 15.4031C17.2071 13.7016 16.6397 13.1349 14.9389 13.1349C13.2382 13.1349 12.6708 13.7016 12.6708 15.4031Z" stroke="#373838" stroke-width="1.5" stroke-linecap="round" stroke-linejoin="round"/>
<path d="M11.8138 6.66181H17.2069" stroke="#373838" stroke-width="1.5" stroke-linecap="round" stroke-linejoin="round"/>
<path fill-rule="evenodd" clip-rule="evenodd" d="M8.4294 6.66071C8.4294 4.95996 7.86198 4.39255 6.16124 4.39255C4.45975 4.39255 3.89233 4.95996 3.89233 6.66071C3.89233 8.3622 4.45975 8.92886 6.16124 8.92886C7.86198 8.92886 8.4294 8.3622 8.4294 6.66071Z" stroke="#373838" stroke-width="1.5" stroke-linecap="round" stroke-linejoin="round"/>
</svg>
