<svg width="19" height="19" viewBox="0 0 19 19" fill="none" xmlns="http://www.w3.org/2000/svg">
<g clip-path="url(#clip0_108_5141)">
<path d="M13.625 1.93741C12.7805 1.95054 11.9543 2.1863 11.2301 2.62086C10.5058 3.05543 9.90902 3.67341 9.5 4.41241C9.09098 3.67341 8.4942 3.05543 7.76993 2.62086C7.04565 2.1863 6.21954 1.95054 5.375 1.93741C4.0287 1.9959 2.76028 2.58485 1.84684 3.57558C0.933394 4.56632 0.449186 5.8783 0.499999 7.22491C0.499999 10.6352 4.0895 14.3597 7.1 16.8849C7.77216 17.4498 8.62201 17.7594 9.5 17.7594C10.378 17.7594 11.2278 17.4498 11.9 16.8849C14.9105 14.3597 18.5 10.6352 18.5 7.22491C18.5508 5.8783 18.0666 4.56632 17.1532 3.57558C16.2397 2.58485 14.9713 1.9959 13.625 1.93741ZM10.9362 15.7374C10.5342 16.0759 10.0256 16.2616 9.5 16.2616C8.97443 16.2616 8.46576 16.0759 8.06375 15.7374C4.21025 12.5042 2 9.40216 2 7.22491C1.94873 6.27595 2.27477 5.34521 2.90702 4.63568C3.53927 3.92616 4.42642 3.49542 5.375 3.43741C6.32357 3.49542 7.21073 3.92616 7.84298 4.63568C8.47522 5.34521 8.80127 6.27595 8.75 7.22491C8.75 7.42382 8.82902 7.61459 8.96967 7.75524C9.11032 7.89589 9.30109 7.97491 9.5 7.97491C9.69891 7.97491 9.88968 7.89589 10.0303 7.75524C10.171 7.61459 10.25 7.42382 10.25 7.22491C10.1987 6.27595 10.5248 5.34521 11.157 4.63568C11.7893 3.92616 12.6764 3.49542 13.625 3.43741C14.5736 3.49542 15.4607 3.92616 16.093 4.63568C16.7252 5.34521 17.0513 6.27595 17 7.22491C17 9.40216 14.7897 12.5042 10.9362 15.7344V15.7374Z" fill="#666666"/>
</g>
<defs>
<clipPath id="clip0_108_5141">
<rect width="18" height="18" fill="white" transform="translate(0.5 0.5)"/>
</clipPath>
</defs>
</svg>
