<svg width="33" height="43" viewBox="0 0 33 43" fill="none" xmlns="http://www.w3.org/2000/svg">
<path d="M16.5 14.9846C14.8432 14.9846 13.5 16.3278 13.5 17.9846V23.9846H19.5V17.9846C19.5 16.3278 18.1568 14.9846 16.5 14.9846Z" fill="#374957"/>
<path d="M21.5 17.9851V23.9851H25.5C27.1568 23.9851 28.5 22.6419 28.5 20.9851V11.8641C28.5002 11.3446 28.2983 10.8453 27.937 10.4721L19.439 1.28504C17.9396 -0.337303 15.4089 -0.436913 13.7865 1.06253C13.7095 1.13378 13.6352 1.20798 13.564 1.28504L5.08102 10.4691C4.70873 10.8439 4.49986 11.3508 4.5 11.8791V20.9851C4.5 22.6419 5.84316 23.9851 7.5 23.9851H11.5V17.9851C11.5187 15.2582 13.7203 13.0315 16.3784 12.9674C19.1255 12.9011 21.4791 15.1658 21.5 17.9851Z" fill="#62BEC1"/>
<path d="M16.5 14.9846C14.8432 14.9846 13.5 16.3278 13.5 17.9846V23.9846H19.5V17.9846C19.5 16.3278 18.1568 14.9846 16.5 14.9846Z" fill="#62BEC1"/>
<path d="M6.89648 30.0164V31.1824H2.36719V30.0164H6.89648ZM2.73047 26.4539V34.9851H1.25977V26.4539H2.73047ZM8.02734 26.4539V34.9851H6.5625V26.4539H8.02734ZM9.36914 31.8855V31.7507C9.36914 31.2937 9.43555 30.8699 9.56836 30.4792C9.70117 30.0847 9.89258 29.7429 10.1426 29.4539C10.3965 29.1609 10.7051 28.9343 11.0684 28.7742C11.4355 28.6101 11.8496 28.5281 12.3105 28.5281C12.7754 28.5281 13.1895 28.6101 13.5527 28.7742C13.9199 28.9343 14.2305 29.1609 14.4844 29.4539C14.7383 29.7429 14.9316 30.0847 15.0645 30.4792C15.1973 30.8699 15.2637 31.2937 15.2637 31.7507V31.8855C15.2637 32.3425 15.1973 32.7664 15.0645 33.157C14.9316 33.5476 14.7383 33.8894 14.4844 34.1824C14.2305 34.4714 13.9219 34.698 13.5586 34.8621C13.1953 35.0222 12.7832 35.1023 12.3223 35.1023C11.8574 35.1023 11.4414 35.0222 11.0742 34.8621C10.7109 34.698 10.4023 34.4714 10.1484 34.1824C9.89453 33.8894 9.70117 33.5476 9.56836 33.157C9.43555 32.7664 9.36914 32.3425 9.36914 31.8855ZM10.7812 31.7507V31.8855C10.7812 32.1707 10.8105 32.4402 10.8691 32.6941C10.9277 32.948 11.0195 33.1707 11.1445 33.3621C11.2695 33.5535 11.4297 33.7039 11.625 33.8132C11.8203 33.9226 12.0527 33.9773 12.3223 33.9773C12.584 33.9773 12.8105 33.9226 13.002 33.8132C13.1973 33.7039 13.3574 33.5535 13.4824 33.3621C13.6074 33.1707 13.6992 32.948 13.7578 32.6941C13.8203 32.4402 13.8516 32.1707 13.8516 31.8855V31.7507C13.8516 31.4695 13.8203 31.2039 13.7578 30.9539C13.6992 30.7 13.6055 30.4753 13.4766 30.28C13.3516 30.0847 13.1914 29.9324 12.9961 29.823C12.8047 29.7097 12.5762 29.6531 12.3105 29.6531C12.0449 29.6531 11.8145 29.7097 11.6191 29.823C11.4277 29.9324 11.2695 30.0847 11.1445 30.28C11.0195 30.4753 10.9277 30.7 10.8691 30.9539C10.8105 31.2039 10.7812 31.4695 10.7812 31.7507ZM17.8594 29.9343V34.9851H16.4473V28.6453H17.7773L17.8594 29.9343ZM17.6309 31.5808L17.1504 31.575C17.1504 31.1375 17.2051 30.7332 17.3145 30.3621C17.4238 29.991 17.584 29.6687 17.7949 29.3953C18.0059 29.1179 18.2676 28.905 18.5801 28.7566C18.8965 28.6042 19.2617 28.5281 19.6758 28.5281C19.9648 28.5281 20.2285 28.571 20.4668 28.657C20.709 28.739 20.918 28.8699 21.0938 29.0496C21.2734 29.2292 21.4102 29.4597 21.5039 29.741C21.6016 30.0222 21.6504 30.3621 21.6504 30.7605V34.9851H20.2383V30.8835C20.2383 30.575 20.1914 30.3328 20.0977 30.157C20.0078 29.9812 19.877 29.8562 19.7051 29.782C19.5371 29.7039 19.3359 29.6648 19.1016 29.6648C18.8359 29.6648 18.6094 29.7156 18.4219 29.8171C18.2383 29.9187 18.0879 30.0574 17.9707 30.2332C17.8535 30.4089 17.7676 30.6121 17.7129 30.8425C17.6582 31.073 17.6309 31.3191 17.6309 31.5808ZM21.5625 31.2058L20.9004 31.3523C20.9004 30.9695 20.9531 30.6082 21.0586 30.2683C21.168 29.9246 21.3262 29.6238 21.5332 29.366C21.7441 29.1042 22.0039 28.8992 22.3125 28.7507C22.6211 28.6023 22.9746 28.5281 23.373 28.5281C23.6973 28.5281 23.9863 28.573 24.2402 28.6628C24.498 28.7488 24.7168 28.8855 24.8965 29.073C25.0762 29.2605 25.2129 29.5046 25.3066 29.8054C25.4004 30.1023 25.4473 30.4617 25.4473 30.8835V34.9851H24.0293V30.8777C24.0293 30.5574 23.9824 30.3093 23.8887 30.1335C23.7988 29.9578 23.6699 29.8367 23.502 29.7703C23.334 29.7 23.1328 29.6648 22.8984 29.6648C22.6797 29.6648 22.4863 29.7058 22.3184 29.7878C22.1543 29.866 22.0156 29.9773 21.9023 30.1218C21.7891 30.2625 21.7031 30.4246 21.6445 30.6082C21.5898 30.7917 21.5625 30.991 21.5625 31.2058ZM29.6953 35.1023C29.2266 35.1023 28.8027 35.0261 28.4238 34.8738C28.0488 34.7175 27.7285 34.5007 27.4629 34.2234C27.2012 33.946 27 33.6199 26.8594 33.2449C26.7188 32.8699 26.6484 32.4656 26.6484 32.032V31.7976C26.6484 31.3015 26.7207 30.8523 26.8652 30.45C27.0098 30.0476 27.2109 29.7039 27.4688 29.4187C27.7266 29.1296 28.0312 28.9089 28.3828 28.7566C28.7344 28.6042 29.1152 28.5281 29.5254 28.5281C29.9785 28.5281 30.375 28.6042 30.7148 28.7566C31.0547 28.9089 31.3359 29.1238 31.5586 29.4011C31.7852 29.6746 31.9531 30.0007 32.0625 30.3796C32.1758 30.7585 32.2324 31.1765 32.2324 31.6335V32.2371H27.334V31.2234H30.8379V31.1121C30.8301 30.8582 30.7793 30.6199 30.6855 30.3972C30.5957 30.1746 30.457 29.9949 30.2695 29.8582C30.082 29.7214 29.832 29.6531 29.5195 29.6531C29.2852 29.6531 29.0762 29.7039 28.8926 29.8054C28.7129 29.9031 28.5625 30.0457 28.4414 30.2332C28.3203 30.4207 28.2266 30.6472 28.1602 30.9128C28.0977 31.1746 28.0664 31.4695 28.0664 31.7976V32.032C28.0664 32.3093 28.1035 32.5671 28.1777 32.8054C28.2559 33.0398 28.3691 33.2449 28.5176 33.4207C28.666 33.5964 28.8457 33.7351 29.0566 33.8367C29.2676 33.9343 29.5078 33.9832 29.7773 33.9832C30.1172 33.9832 30.4199 33.9148 30.6855 33.7781C30.9512 33.6414 31.1816 33.448 31.377 33.198L32.1211 33.9187C31.9844 34.1179 31.8066 34.3093 31.5879 34.4929C31.3691 34.6726 31.1016 34.8191 30.7852 34.9324C30.4727 35.0457 30.1094 35.1023 29.6953 35.1023Z" fill="#62BEC1"/>
</svg>
