<svg width="16" height="17" viewBox="0 0 16 17" fill="none" xmlns="http://www.w3.org/2000/svg">
<path d="M8.55751 0.519511C7.41467 0.439543 6.26798 0.606004 5.19504 1.00763C4.1221 1.40926 3.14795 2.03668 2.33849 2.84744C1.52904 3.6582 0.903169 4.63338 0.503238 5.707C0.103307 6.78062 -0.0613564 7.92762 0.0203912 9.07039C0.314361 13.3055 4.05531 16.5 8.72216 16.5H12.6664C13.5501 16.4989 14.3972 16.1474 15.022 15.5226C15.6469 14.8977 15.9983 14.0505 15.9994 13.1668V8.72708C16.0243 6.67215 15.2709 4.68389 13.8905 3.16149C12.5101 1.63908 10.605 0.69526 8.55751 0.519511ZM8.00023 3.834C8.26542 3.834 8.51975 3.93935 8.70727 4.12688C8.89478 4.31441 9.00013 4.56875 9.00013 4.83395C9.00013 5.09915 8.89478 5.35349 8.70727 5.54102C8.51975 5.72855 8.26542 5.8339 8.00023 5.8339C7.73504 5.8339 7.48071 5.72855 7.2932 5.54102C7.10568 5.35349 7.00034 5.09915 7.00034 4.83395C7.00034 4.56875 7.10568 4.31441 7.2932 4.12688C7.48071 3.93935 7.73504 3.834 8.00023 3.834ZM9.33343 12.5002C9.33343 12.677 9.2632 12.8466 9.13818 12.9716C9.01317 13.0966 8.84362 13.1668 8.66683 13.1668C8.49004 13.1668 8.32049 13.0966 8.19547 12.9716C8.07046 12.8466 8.00023 12.677 8.00023 12.5002V8.50042H7.33363C7.15684 8.50042 6.98729 8.43019 6.86228 8.30517C6.73727 8.18015 6.66704 8.01059 6.66704 7.83379C6.66704 7.65699 6.73727 7.48743 6.86228 7.36241C6.98729 7.23739 7.15684 7.16716 7.33363 7.16716H8.00023C8.35382 7.16716 8.69292 7.30763 8.94294 7.55766C9.19297 7.8077 9.33343 8.14682 9.33343 8.50042V12.5002Z" fill="#479AA5"/>
</svg>
