<svg width="29" height="28" viewBox="0 0 29 28" fill="none" xmlns="http://www.w3.org/2000/svg">
<path d="M10.1771 5.25V1.75C10.1771 1.57595 10.2463 1.40903 10.3693 1.28596C10.4924 1.16289 10.6593 1.09375 10.8334 1.09375C11.0074 1.09375 11.1743 1.16289 11.2974 1.28596C11.4205 1.40903 11.4896 1.57595 11.4896 1.75V5.25C11.4896 5.42405 11.4205 5.59097 11.2974 5.71404C11.1743 5.83711 11.0074 5.90625 10.8334 5.90625C10.6593 5.90625 10.4924 5.83711 10.3693 5.71404C10.2463 5.59097 10.1771 5.42405 10.1771 5.25ZM14.3334 5.90625C14.5074 5.90625 14.6743 5.83711 14.7974 5.71404C14.9205 5.59097 14.9896 5.42405 14.9896 5.25V1.75C14.9896 1.57595 14.9205 1.40903 14.7974 1.28596C14.6743 1.16289 14.5074 1.09375 14.3334 1.09375C14.1593 1.09375 13.9924 1.16289 13.8693 1.28596C13.7463 1.40903 13.6771 1.57595 13.6771 1.75V5.25C13.6771 5.42405 13.7463 5.59097 13.8693 5.71404C13.9924 5.83711 14.1593 5.90625 14.3334 5.90625ZM17.8334 5.90625C18.0074 5.90625 18.1743 5.83711 18.2974 5.71404C18.4205 5.59097 18.4896 5.42405 18.4896 5.25V1.75C18.4896 1.57595 18.4205 1.40903 18.2974 1.28596C18.1743 1.16289 18.0074 1.09375 17.8334 1.09375C17.6593 1.09375 17.4924 1.16289 17.3693 1.28596C17.2463 1.40903 17.1771 1.57595 17.1771 1.75V5.25C17.1771 5.42405 17.2463 5.59097 17.3693 5.71404C17.4924 5.83711 17.6593 5.90625 17.8334 5.90625ZM27.8521 11.025L24.6146 13.4531V20.125C24.6146 20.9952 24.2689 21.8298 23.6536 22.4452C23.0382 23.0605 22.2036 23.4062 21.3334 23.4062H7.33338C6.46313 23.4062 5.62854 23.0605 5.01318 22.4452C4.39783 21.8298 4.05213 20.9952 4.05213 20.125V13.4531L0.814627 11.025C0.675388 10.9206 0.583336 10.7651 0.558722 10.5928C0.534108 10.4205 0.578948 10.2455 0.683377 10.1063C0.787806 9.96701 0.94327 9.87496 1.11557 9.85035C1.28787 9.82573 1.46289 9.87057 1.60213 9.975L4.05213 11.8125V9.625C4.05213 9.21889 4.21345 8.82941 4.50062 8.54224C4.78778 8.25508 5.17726 8.09375 5.58338 8.09375H23.0834C23.4895 8.09375 23.879 8.25508 24.1661 8.54224C24.4533 8.82941 24.6146 9.21889 24.6146 9.625V11.8125L27.0646 9.975C27.2039 9.87057 27.3789 9.82573 27.5512 9.85035C27.7235 9.87496 27.8789 9.96701 27.9834 10.1063C28.0878 10.2455 28.1326 10.4205 28.108 10.5928C28.0834 10.7651 27.9914 10.9206 27.8521 11.025ZM23.3021 9.625C23.3021 9.56698 23.2791 9.51134 23.2381 9.47032C23.197 9.4293 23.1414 9.40625 23.0834 9.40625H5.58338C5.52536 9.40625 5.46972 9.4293 5.4287 9.47032C5.38767 9.51134 5.36463 9.56698 5.36463 9.625V20.125C5.36463 20.6471 5.57205 21.1479 5.94126 21.5171C6.31047 21.8863 6.81123 22.0938 7.33338 22.0938H21.3334C21.8555 22.0938 22.3563 21.8863 22.7255 21.5171C23.0947 21.1479 23.3021 20.6471 23.3021 20.125V9.625Z" fill="#373838"/>
</svg>
