<svg width="18" height="28" viewBox="0 0 18 28" fill="none" xmlns="http://www.w3.org/2000/svg">
<g clip-path="url(#clip0_282_2189)">
<path d="M18 11.0298H0V2.42723C0 1.08842 1.12467 0 2.50807 0H15.4919C16.8753 0 18 1.08842 18 2.42723V11.0298ZM0.792021 10.2633H17.208V2.42723C17.208 1.51255 16.4371 0.766493 15.4919 0.766493H2.50807C1.56292 0.766493 0.792021 1.51255 0.792021 2.42723V10.2633Z" fill="#373838"/>
<path d="M15.4708 26.2498H2.52919C1.13523 26.2498 0 25.1512 0 23.8021V10.2633H18V23.8021C18 25.1512 16.8648 26.2498 15.4708 26.2498ZM0.792021 11.0298V23.8021C0.792021 24.7296 1.57084 25.4833 2.52919 25.4833H15.4708C16.4292 25.4833 17.208 24.7296 17.208 23.8021V11.0298H0.792021Z" fill="#373838"/>
<path d="M3.35287 13.8531H3.23671C2.93197 13.8531 2.68494 14.0922 2.68494 14.3871V20.8001C2.68494 21.095 2.93197 21.3341 3.23671 21.3341H3.35287C3.65761 21.3341 3.90465 21.095 3.90465 20.8001V14.3871C3.90465 14.0922 3.65761 13.8531 3.35287 13.8531Z" fill="#373838"/>
<path d="M2.18068 25.8666H2.97798C3.13639 25.8666 3.26575 25.9918 3.26575 26.1451V27.4685C3.26575 27.7598 3.02022 27.9974 2.71926 27.9974H2.44469C2.14372 27.9974 1.89819 27.7598 1.89819 27.4685V26.1451C1.89819 25.9918 2.02756 25.8666 2.18596 25.8666H2.18068Z" fill="#373838"/>
<path d="M15.1196 25.8666H15.8668C16.0384 25.8666 16.1783 26.002 16.1783 26.1681V27.4788C16.1783 27.7649 15.9381 27.9974 15.6424 27.9974H15.344C15.0484 27.9974 14.8081 27.7649 14.8081 27.4788V26.1681C14.8081 26.002 14.948 25.8666 15.1196 25.8666Z" fill="#373838"/>
<path d="M3.43736 2.8667H3.15223C2.89415 2.8667 2.68494 3.06917 2.68494 3.31893V7.80292C2.68494 8.05268 2.89415 8.25515 3.15223 8.25515H3.43736C3.69544 8.25515 3.90465 8.05268 3.90465 7.80292V3.31893C3.90465 3.06917 3.69544 2.8667 3.43736 2.8667Z" fill="#373838"/>
</g>
<defs>
<clipPath id="clip0_282_2189">
<rect width="18" height="28" fill="white"/>
</clipPath>
</defs>
</svg>
