<svg width="24" height="25" viewBox="0 0 24 25" fill="none" xmlns="http://www.w3.org/2000/svg">
<g clip-path="url(#clip0_301_2813)">
<path d="M17.1699 24.5C17.0383 24.5007 16.9078 24.4755 16.786 24.4257C16.6641 24.376 16.5533 24.3027 16.4599 24.21L8.28989 16.04C7.82426 15.5755 7.45483 15.0238 7.20277 14.4163C6.9507 13.8089 6.82095 13.1577 6.82095 12.5C6.82095 11.8423 6.9507 11.1911 7.20277 10.5837C7.45483 9.9762 7.82426 9.42445 8.28989 8.95999L16.4599 0.790002C16.5531 0.696764 16.6638 0.622803 16.7856 0.572342C16.9075 0.521882 17.038 0.495911 17.1699 0.495911C17.3018 0.495911 17.4323 0.521882 17.5541 0.572342C17.676 0.622803 17.7867 0.696764 17.8799 0.790002C17.9731 0.88324 18.0471 0.99393 18.0976 1.11575C18.148 1.23757 18.174 1.36814 18.174 1.5C18.174 1.63186 18.148 1.76243 18.0976 1.88425C18.0471 2.00607 17.9731 2.11676 17.8799 2.21L9.70989 10.38C9.14809 10.9425 8.83253 11.705 8.83253 12.5C8.83253 13.295 9.14809 14.0575 9.70989 14.62L17.8799 22.79C17.9736 22.8829 18.048 22.9935 18.0988 23.1154C18.1496 23.2373 18.1757 23.368 18.1757 23.5C18.1757 23.632 18.1496 23.7627 18.0988 23.8846C18.048 24.0064 17.9736 24.117 17.8799 24.21C17.7865 24.3027 17.6756 24.376 17.5538 24.4257C17.432 24.4755 17.3015 24.5007 17.1699 24.5Z" fill="#374957"/>
</g>
<defs>
<clipPath id="clip0_301_2813">
<rect width="24" height="24" fill="white" transform="translate(0 0.5)"/>
</clipPath>
</defs>
</svg>
