<svg width="26" height="28" viewBox="0 0 26 28" fill="none" xmlns="http://www.w3.org/2000/svg">
<g clip-path="url(#clip0_286_2223)">
<path d="M23.3407 -6.50063e-06H3.32601C1.95076 -6.50063e-06 0.833374 1.07692 0.833374 2.40236V3.75147C0.833374 4.49704 1.43504 5.08875 2.18406 5.14792V26.3077H3.78033V26.5799C3.78033 27.3728 4.44339 28.0118 5.26608 28.0118H6.21157C7.03426 28.0118 7.69732 27.3728 7.69732 26.5799V26.3077H19.1782V26.5799C19.1782 27.3728 19.8412 28.0118 20.6639 28.0118H21.6094C22.4321 28.0118 23.0952 27.3728 23.0952 26.5799V26.3077H24.4704V5.13609C25.2194 5.07692 25.8211 4.4852 25.8211 3.73964V2.39053C25.8211 1.06508 24.7037 -0.0118408 23.3285 -0.0118408L23.3407 -6.50063e-06ZM3.10498 5.15976H12.8791V21.9882H3.10498V5.15976ZM6.78868 26.568C6.78868 26.8757 6.53082 27.1124 6.22385 27.1124H5.27836C4.95911 27.1124 4.71353 26.8639 4.71353 26.568V26.2959H6.80096V26.568H6.78868ZM12.8791 25.4083H3.10498V22.8757H12.8791V25.4083ZM22.1988 26.568C22.1988 26.8757 21.9409 27.1124 21.634 27.1124H20.6885C20.3692 27.1124 20.1236 26.8639 20.1236 26.568V26.2959H22.2111V26.568H22.1988ZM23.574 25.4083H13.8123V22.8757H23.574V25.4083ZM13.8123 21.9882V5.15976H23.574V21.9882H13.8123ZM24.9125 3.75147C24.9125 4.04733 24.6669 4.28402 24.3599 4.28402H2.30685C1.99988 4.28402 1.7543 4.04733 1.7543 3.75147V2.40236C1.7543 1.56212 2.4542 0.887567 3.32601 0.887567H23.3407C24.2125 0.887567 24.9125 1.56212 24.9125 2.40236V3.75147Z" fill="#373838"/>
<path d="M11.4547 10.071H11.0372C10.7863 10.071 10.5829 10.2671 10.5829 10.5089V13.5503C10.5829 13.7922 10.7863 13.9882 11.0372 13.9882H11.4547C11.7056 13.9882 11.909 13.7922 11.909 13.5503V10.5089C11.909 10.2671 11.7056 10.071 11.4547 10.071Z" fill="#373838"/>
<path d="M15.6295 10.071H15.212C14.9611 10.071 14.7577 10.2671 14.7577 10.5089V13.5503C14.7577 13.7922 14.9611 13.9882 15.212 13.9882H15.6295C15.8804 13.9882 16.0838 13.7922 16.0838 13.5503V10.5089C16.0838 10.2671 15.8804 10.071 15.6295 10.071Z" fill="#373838"/>
</g>
<defs>
<clipPath id="clip0_286_2223">
<rect width="25" height="28" fill="white" transform="translate(0.833374)"/>
</clipPath>
</defs>
</svg>
