<svg width="9" height="9" viewBox="0 0 9 9" fill="none" xmlns="http://www.w3.org/2000/svg">
<g clip-path="url(#clip0_108_5383)">
<path d="M4.49997 0.27478C3.61795 0.275751 2.77233 0.626539 2.14862 1.25019C1.52491 1.87384 1.17403 2.71943 1.17297 3.60145C1.17297 4.45811 1.83631 5.79878 3.14464 7.58611C3.30039 7.79949 3.50433 7.97308 3.73984 8.09275C3.97536 8.21242 4.2358 8.27479 4.49997 8.27479C4.76415 8.27479 5.02459 8.21242 5.26011 8.09275C5.49562 7.97308 5.69955 7.79949 5.85531 7.58611C7.16364 5.79878 7.82697 4.45811 7.82697 3.60145C7.82592 2.71943 7.47504 1.87384 6.85133 1.25019C6.22761 0.626539 5.38199 0.275751 4.49997 0.27478V0.27478ZM4.49997 4.92745C4.23627 4.92745 3.97848 4.84925 3.75921 4.70274C3.53995 4.55623 3.36905 4.34799 3.26813 4.10436C3.16722 3.86072 3.14081 3.59264 3.19226 3.33399C3.24371 3.07535 3.37069 2.83777 3.55716 2.6513C3.74363 2.46483 3.98121 2.33785 4.23985 2.2864C4.49849 2.23495 4.76658 2.26136 5.01022 2.36227C5.25385 2.46319 5.46209 2.63409 5.6086 2.85335C5.75511 3.07262 5.83331 3.33041 5.83331 3.59411C5.83331 3.94774 5.69283 4.28687 5.44278 4.53692C5.19273 4.78697 4.8536 4.92745 4.49997 4.92745Z" fill="white"/>
</g>
<defs>
<clipPath id="clip0_108_5383">
<rect width="8" height="8" fill="white" transform="translate(0.5 0.26062)"/>
</clipPath>
</defs>
</svg>
