<svg width="18" height="18" viewBox="0 0 18 18" fill="none" xmlns="http://www.w3.org/2000/svg">
<g clip-path="url(#clip0_301_2561)">
<path d="M8.99991 0.0318604C7.01537 0.0340437 5.11272 0.823317 3.70936 2.22653C2.30601 3.62975 1.51654 5.53232 1.51416 7.51686C1.51416 9.44436 3.00666 12.4609 5.95041 16.4824C6.30085 16.9625 6.7597 17.353 7.28961 17.6223C7.81952 17.8915 8.40552 18.0319 8.99991 18.0319C9.5943 18.0319 10.1803 17.8915 10.7102 17.6223C11.2401 17.353 11.699 16.9625 12.0494 16.4824C14.9932 12.4609 16.4857 9.44436 16.4857 7.51686C16.4833 5.53232 15.6938 3.62975 14.2905 2.22653C12.8871 0.823317 10.9845 0.0340437 8.99991 0.0318604Z" fill="#479AA5"/>
</g>
<g clip-path="url(#clip1_301_2561)">
<path d="M9 8.99731C8.44772 8.99731 8 9.44503 8 9.99731V11.9973H10V9.99731C10 9.44503 9.55228 8.99731 9 8.99731Z" fill="#F3F4F8"/>
<path d="M10.6667 9.99746V11.9975H12C12.5523 11.9975 13 11.5497 13 10.9975V7.95713C13.0001 7.78396 12.9328 7.61755 12.8123 7.49313L9.97967 4.43079C9.47986 3.89001 8.6363 3.8568 8.09552 4.35662C8.06983 4.38037 8.04508 4.4051 8.02134 4.43079L5.19367 7.49213C5.06958 7.61707 4.99995 7.78604 5 7.96213V10.9975C5 11.5497 5.44772 11.9975 6 11.9975H7.33333V9.99746C7.33956 9.08852 8.07342 8.34627 8.95947 8.3249C9.87516 8.3028 10.6597 9.0577 10.6667 9.99746Z" fill="#F3F4F8"/>
<path d="M9 8.99731C8.44772 8.99731 8 9.44503 8 9.99731V11.9973H10V9.99731C10 9.44503 9.55228 8.99731 9 8.99731Z" fill="#F3F4F8"/>
</g>
<defs>
<clipPath id="clip0_301_2561">
<rect width="18" height="18" fill="white"/>
</clipPath>
<clipPath id="clip1_301_2561">
<rect width="8" height="8" fill="white" transform="translate(5 4)"/>
</clipPath>
</defs>
</svg>
