<svg width="9" height="8" viewBox="0 0 9 8" fill="none" xmlns="http://www.w3.org/2000/svg">
<path d="M7.82439 6.56246C7.39594 5.81049 6.72691 5.22457 5.92501 4.89902C6.32379 4.59994 6.61836 4.18297 6.76698 3.70717C6.91561 3.23137 6.91077 2.72087 6.75314 2.24798C6.59551 1.77509 6.29308 1.36378 5.8887 1.07232C5.48432 0.780862 4.99848 0.624023 4.50001 0.624023C4.00154 0.624023 3.51571 0.780862 3.11133 1.07232C2.70695 1.36378 2.40452 1.77509 2.24689 2.24798C2.08926 2.72087 2.08442 3.23137 2.23304 3.70717C2.38167 4.18297 2.67624 4.59994 3.07501 4.89902C2.27311 5.22457 1.60409 5.81049 1.17564 6.56246C1.14909 6.60515 1.1314 6.65274 1.12361 6.7024C1.11582 6.75207 1.1181 6.80279 1.1303 6.85156C1.14251 6.90032 1.16439 6.94614 1.19466 6.98627C1.22493 7.02641 1.26295 7.06006 1.30648 7.08521C1.35001 7.11035 1.39815 7.12649 1.44804 7.13267C1.49793 7.13884 1.54855 7.13492 1.59689 7.12113C1.64524 7.10735 1.69032 7.08399 1.72945 7.05243C1.76859 7.02088 1.80098 6.98178 1.8247 6.93746C2.39095 5.95871 3.39095 5.37496 4.50001 5.37496C5.60908 5.37496 6.60908 5.95902 7.17533 6.93746C7.22674 7.02013 7.30828 7.07956 7.40271 7.1032C7.49715 7.12683 7.59707 7.11282 7.68137 7.06412C7.76566 7.01542 7.82771 6.93585 7.8544 6.84223C7.88109 6.74862 7.87033 6.64829 7.82439 6.56246ZM2.87501 2.99996C2.87501 2.67857 2.97032 2.36439 3.14888 2.09716C3.32743 1.82993 3.58122 1.62165 3.87815 1.49866C4.17508 1.37566 4.50182 1.34348 4.81704 1.40618C5.13225 1.46889 5.4218 1.62365 5.64906 1.85091C5.87632 2.07817 6.03109 2.36772 6.09379 2.68294C6.15649 2.99816 6.12431 3.32489 6.00132 3.62182C5.87833 3.91875 5.67005 4.17254 5.40282 4.3511C5.13559 4.52966 4.82141 4.62496 4.50001 4.62496C4.06919 4.62446 3.65615 4.4531 3.35151 4.14846C3.04687 3.84382 2.87551 3.43079 2.87501 2.99996Z" fill="#479AA5"/>
</svg>
