<svg width="16" height="17" viewBox="0 0 16 17" fill="none" xmlns="http://www.w3.org/2000/svg">
<path d="M12 4.99997H9.5125C9.33062 4.98935 6.16125 4.76622 3.14313 2.23497C2.99738 2.11257 2.81973 2.0343 2.63104 2.00936C2.44236 1.98442 2.25047 2.01384 2.07793 2.09417C1.90538 2.1745 1.75935 2.30241 1.65697 2.46286C1.5546 2.62331 1.50014 2.80964 1.5 2.99997V13C1.50003 13.1904 1.5544 13.3768 1.65672 13.5373C1.75905 13.6979 1.90508 13.8259 2.07764 13.9063C2.25021 13.9867 2.44214 14.0162 2.63089 13.9912C2.81963 13.9663 2.99734 13.888 3.14313 13.7656C5.50375 11.7856 7.95563 11.2181 9 11.0593V13.0418C8.99979 13.2066 9.0403 13.3689 9.11794 13.5143C9.19558 13.6596 9.30793 13.7835 9.445 13.875L10.1325 14.3331C10.2654 14.4218 10.4176 14.4774 10.5764 14.4951C10.7351 14.5129 10.8959 14.4924 11.0451 14.4353C11.1943 14.3782 11.3276 14.2862 11.434 14.1669C11.5403 14.0477 11.6165 13.9047 11.6562 13.75L12.3919 10.9775C13.1523 10.884 13.8482 10.5032 14.3368 9.91304C14.8255 9.32288 15.0698 8.56814 15.0196 7.80361C14.9695 7.03907 14.6288 6.32268 14.0673 5.80136C13.5058 5.28005 12.7661 4.99332 12 4.99997ZM10.6875 13.4931V13.5L10 13.0418V11H11.35L10.6875 13.4931ZM12 9.99997H10V5.99997H12C12.5304 5.99997 13.0391 6.21069 13.4142 6.58576C13.7893 6.96083 14 7.46954 14 7.99997C14 8.5304 13.7893 9.03911 13.4142 9.41419C13.0391 9.78926 12.5304 9.99997 12 9.99997Z" fill="#7EBA10"/>
</svg>
