<svg width="26" height="28" viewBox="0 0 26 28" fill="none" xmlns="http://www.w3.org/2000/svg">
<g clip-path="url(#clip0_278_2483)">
<path d="M22.36 28H3.64C1.91 28 0.5 26.65 0.5 25V3C0.5 1.35 1.91 0 3.64 0H22.37C24.1 0 25.51 1.35 25.51 3V24.99C25.51 26.65 24.1 27.99 22.37 27.99L22.36 28ZM3.64 0.76C2.35 0.76 1.3 1.77 1.3 3V24.99C1.3 26.23 2.35 27.23 3.64 27.23H22.37C23.66 27.23 24.71 26.23 24.71 24.99V3C24.71 1.76 23.66 0.76 22.37 0.76H3.64Z" fill="#373838"/>
<path d="M25.5 6.5H0.5V3.1C0.5 1.39 1.95 0 3.74 0H22.26C24.05 0 25.5 1.39 25.5 3.1V6.5ZM1.3 5.74H24.71V3.11C24.71 1.82 23.61 0.77 22.27 0.77H3.74C2.39 0.76 1.3 1.81 1.3 3.1V5.73V5.74Z" fill="#373838"/>
<path d="M11.27 4.83002H4.01995C3.28995 4.83002 2.69995 4.26002 2.69995 3.57002V3.16002C2.69995 2.47002 3.28995 1.90002 4.01995 1.90002H11.27C12 1.90002 12.59 2.47002 12.59 3.16002V3.57002C12.59 4.26002 12 4.83002 11.27 4.83002ZM4.01995 2.65002C3.72995 2.65002 3.49995 2.87002 3.49995 3.15002V3.56002C3.49995 3.83002 3.72995 4.06002 4.01995 4.06002H11.27C11.56 4.06002 11.79 3.84002 11.79 3.56002V3.15002C11.79 2.88002 11.56 2.65002 11.27 2.65002H4.01995Z" fill="#373838"/>
<path d="M17.4 4.96001C16.48 4.96001 15.73 4.24001 15.73 3.36001C15.73 2.48001 16.48 1.76001 17.4 1.76001C18.32 1.76001 19.07 2.48001 19.07 3.36001C19.07 4.24001 18.32 4.96001 17.4 4.96001ZM17.4 2.53001C16.92 2.53001 16.53 2.90001 16.53 3.36001C16.53 3.82001 16.92 4.19001 17.4 4.19001C17.88 4.19001 18.27 3.82001 18.27 3.36001C18.27 2.90001 17.88 2.53001 17.4 2.53001Z" fill="#373838"/>
<path d="M21.8599 4.96001C20.9399 4.96001 20.1899 4.24001 20.1899 3.36001C20.1899 2.48001 20.9399 1.76001 21.8599 1.76001C22.7799 1.76001 23.5299 2.48001 23.5299 3.36001C23.5299 4.24001 22.7799 4.96001 21.8599 4.96001ZM21.8599 2.53001C21.3799 2.53001 20.9899 2.90001 20.9899 3.36001C20.9899 3.82001 21.3799 4.19001 21.8599 4.19001C22.3399 4.19001 22.7299 3.82001 22.7299 3.36001C22.7299 2.90001 22.3399 2.53001 21.8599 2.53001Z" fill="#373838"/>
<path d="M13 24.54C8.60002 24.54 5.02002 21.11 5.02002 16.89C5.02002 12.67 8.60002 9.23999 13 9.23999C17.4 9.23999 20.98 12.67 20.98 16.89C20.98 21.11 17.4 24.54 13 24.54ZM13 10.01C9.04002 10.01 5.81002 13.1 5.81002 16.89C5.81002 20.68 9.03002 23.77 13 23.77C16.97 23.77 20.19 20.68 20.19 16.89C20.19 13.1 16.97 10.01 13 10.01Z" fill="#373838"/>
<path d="M13 22.85C9.57003 22.85 6.78003 20.18 6.78003 16.9C6.78003 13.62 9.57003 10.95 13 10.95C16.43 10.95 19.22 13.62 19.22 16.9C19.22 20.18 16.43 22.85 13 22.85ZM13 11.71C10.01 11.71 7.58003 14.04 7.58003 16.9C7.58003 19.76 10.01 22.09 13 22.09C15.99 22.09 18.42 19.76 18.42 16.9C18.42 14.04 15.99 11.71 13 11.71Z" fill="#373838"/>
<path d="M9.89002 17.95C8.45002 17.95 7.36002 17 6.90002 16.35L7.56002 15.92C7.62002 16 8.94002 17.81 10.96 16.95C11.23 16.84 11.48 16.72 11.73 16.61C13.74 15.71 15.47 14.94 18.9 15.77L18.7 16.51C15.55 15.74 14.01 16.43 12.06 17.3C11.81 17.41 11.54 17.53 11.27 17.65C10.78 17.86 10.31 17.95 9.87002 17.95H9.89002Z" fill="#373838"/>
</g>
<defs>
<clipPath id="clip0_278_2483">
<rect width="25" height="28" fill="white" transform="translate(0.5)"/>
</clipPath>
</defs>
</svg>
