<svg width="13" height="10" viewBox="0 0 13 10" fill="none" xmlns="http://www.w3.org/2000/svg">
<path fill-rule="evenodd" clip-rule="evenodd" d="M2.75 0C1.36929 0 0.25 1.11929 0.25 2.5V7.5C0.25 8.88071 1.36929 10 2.75 10H10.25C11.6307 10 12.75 8.88071 12.75 7.5V2.5C12.75 1.11929 11.6307 0 10.25 0H2.75ZM2.125 1.40625C1.86612 1.40625 1.65625 1.61612 1.65625 1.875C1.65625 2.13388 1.86612 2.34375 2.125 2.34375H3.375C3.63388 2.34375 3.84375 2.13388 3.84375 1.875C3.84375 1.61612 3.63388 1.40625 3.375 1.40625H2.125ZM9.15625 8.125C9.15625 7.86612 9.36612 7.65625 9.625 7.65625H10.875C11.1339 7.65625 11.3438 7.86612 11.3438 8.125C11.3438 8.38388 11.1339 8.59375 10.875 8.59375H9.625C9.36612 8.59375 9.15625 8.38388 9.15625 8.125ZM6.5 6.25C7.19036 6.25 7.75 5.69036 7.75 5C7.75 4.30964 7.19036 3.75 6.5 3.75C5.80964 3.75 5.25 4.30964 5.25 5C5.25 5.69036 5.80964 6.25 6.5 6.25Z" fill="#252531"/>
</svg>
