<svg width="29" height="28" viewBox="0 0 29 28" fill="none" xmlns="http://www.w3.org/2000/svg">
<path d="M23.4167 4.59374H18.7705C18.6111 3.62089 18.1111 2.73638 17.3598 2.09814C16.6085 1.4599 15.6547 1.1095 14.6689 1.1095C13.6831 1.1095 12.7294 1.4599 11.9781 2.09814C11.2268 2.73638 10.7268 3.62089 10.5674 4.59374H5.91675C5.7427 4.59374 5.57578 4.66288 5.45271 4.78595C5.32964 4.90902 5.2605 5.07594 5.2605 5.24999C5.2605 5.42403 5.32964 5.59095 5.45271 5.71402C5.57578 5.8371 5.7427 5.90624 5.91675 5.90624H10.563C10.7337 6.96962 11.3105 7.92523 12.1719 8.57171C10.9088 9.0729 9.82508 9.94152 9.06092 11.0652C8.29677 12.1889 7.88731 13.5161 7.8855 14.875V21.875C7.8855 22.2811 8.04683 22.6706 8.33399 22.9577C8.62116 23.2449 9.01064 23.4062 9.41675 23.4062H11.3855V23.625C11.3855 24.4952 11.7312 25.3298 12.3466 25.9452C12.9619 26.5605 13.7965 26.9062 14.6667 26.9062C15.537 26.9062 16.3716 26.5605 16.9869 25.9452C17.6023 25.3298 17.948 24.4952 17.948 23.625V23.4062H19.9167C20.3229 23.4062 20.7123 23.2449 20.9995 22.9577C21.2867 22.6706 21.448 22.2811 21.448 21.875V14.875C21.4462 13.5161 21.0367 12.1889 20.2726 11.0652C19.5084 9.94152 18.4247 9.0729 17.1616 8.57171C18.023 7.92523 18.5998 6.96962 18.7705 5.90624H23.4167C23.5908 5.90624 23.7577 5.8371 23.8808 5.71402C24.0039 5.59095 24.073 5.42403 24.073 5.24999C24.073 5.07594 24.0039 4.90902 23.8808 4.78595C23.7577 4.66288 23.5908 4.59374 23.4167 4.59374ZM16.6355 23.625C16.6355 24.1471 16.4281 24.6479 16.0589 25.0171C15.6897 25.3863 15.1889 25.5937 14.6667 25.5937C14.1446 25.5937 13.6438 25.3863 13.2746 25.0171C12.9054 24.6479 12.698 24.1471 12.698 23.625V18.375C12.698 17.8528 12.9054 17.3521 13.2746 16.9829C13.6438 16.6137 14.1446 16.4062 14.6667 16.4062C15.1889 16.4062 15.6897 16.6137 16.0589 16.9829C16.4281 17.3521 16.6355 17.8528 16.6355 18.375V23.625ZM20.1355 14.875V21.875C20.1355 21.933 20.1125 21.9886 20.0714 22.0297C20.0304 22.0707 19.9748 22.0937 19.9167 22.0937H17.948V18.375C17.948 17.5047 17.6023 16.6701 16.9869 16.0548C16.3716 15.4394 15.537 15.0937 14.6667 15.0937C13.7965 15.0937 12.9619 15.4394 12.3466 16.0548C11.7312 16.6701 11.3855 17.5047 11.3855 18.375V22.0937H9.41675C9.35873 22.0937 9.30309 22.0707 9.26207 22.0297C9.22104 21.9886 9.198 21.933 9.198 21.875V14.875C9.198 13.4246 9.77417 12.0336 10.7998 11.008C11.8253 9.98241 13.2163 9.40624 14.6667 9.40624C16.1172 9.40624 17.5081 9.98241 18.5337 11.008C19.5593 12.0336 20.1355 13.4246 20.1355 14.875ZM14.6667 8.09374C14.1043 8.09374 13.5545 7.92695 13.0868 7.61448C12.6192 7.302 12.2547 6.85787 12.0395 6.33824C11.8242 5.81861 11.7679 5.24683 11.8776 4.6952C11.9874 4.14356 12.2582 3.63686 12.6559 3.23915C13.0536 2.84145 13.5603 2.5706 14.112 2.46088C14.6636 2.35115 15.2354 2.40747 15.755 2.6227C16.2746 2.83794 16.7188 3.20243 17.0312 3.67008C17.3437 4.13774 17.5105 4.68755 17.5105 5.24999C17.5105 6.0042 17.2109 6.72751 16.6776 7.26082C16.1443 7.79413 15.421 8.09374 14.6667 8.09374Z" fill="#373838"/>
</svg>
