<svg width="29" height="28" viewBox="0 0 29 28" fill="none" xmlns="http://www.w3.org/2000/svg">
<path d="M25.1667 14.2188C24.7864 14.2183 24.4114 14.3087 24.073 14.4823V14C24.073 9.54734 20.8672 7.41344 18.2903 5.69844C16.6978 4.63859 15.323 3.71875 15.323 2.625C15.323 2.45095 15.2539 2.28403 15.1308 2.16096C15.0077 2.03789 14.8408 1.96875 14.6667 1.96875C14.4927 1.96875 14.3258 2.03789 14.2027 2.16096C14.0796 2.28403 14.0105 2.45095 14.0105 2.625C14.0105 3.71875 12.6357 4.63859 11.0432 5.69844C8.46628 7.41344 5.2605 9.54734 5.2605 14V14.4823C4.89372 14.2952 4.48504 14.2053 4.07356 14.2212C3.66209 14.2371 3.2616 14.3584 2.9104 14.5734C2.5592 14.7884 2.26906 15.0899 2.06772 15.4492C1.86639 15.8084 1.76061 16.2132 1.7605 16.625V22.75C1.7605 22.924 1.82964 23.091 1.95271 23.214C2.07578 23.3371 2.2427 23.4062 2.41675 23.4062H9.41675C9.5908 23.4062 9.75772 23.3371 9.88079 23.214C10.0039 23.091 10.073 22.924 10.073 22.75V19.25C10.073 18.9599 10.1882 18.6817 10.3934 18.4766C10.5985 18.2715 10.8767 18.1562 11.1667 18.1562C11.4568 18.1562 11.735 18.2715 11.9401 18.4766C12.1453 18.6817 12.2605 18.9599 12.2605 19.25V22.75C12.2605 22.924 12.3296 23.091 12.4527 23.214C12.5758 23.3371 12.7427 23.4062 12.9167 23.4062H16.4167C16.5908 23.4062 16.7577 23.3371 16.8808 23.214C17.0039 23.091 17.073 22.924 17.073 22.75V19.25C17.073 18.9599 17.1882 18.6817 17.3933 18.4766C17.5985 18.2715 17.8767 18.1562 18.1667 18.1562C18.4568 18.1562 18.735 18.2715 18.9401 18.4766C19.1453 18.6817 19.2605 18.9599 19.2605 19.25V22.75C19.2605 22.924 19.3296 23.091 19.4527 23.214C19.5758 23.3371 19.7427 23.4062 19.9167 23.4062H26.9167C27.0908 23.4062 27.2577 23.3371 27.3808 23.214C27.5039 23.091 27.573 22.924 27.573 22.75V16.625C27.573 15.9868 27.3195 15.3748 26.8682 14.9235C26.417 14.4723 25.8049 14.2188 25.1667 14.2188ZM11.7705 6.79109C12.9047 6.03641 13.9996 5.30797 14.6667 4.43188C15.3339 5.30688 16.4288 6.03641 17.563 6.79109C19.8522 8.3125 22.4324 10.0308 22.731 13.3438H6.60253C6.90112 10.0308 9.48128 8.3125 11.7705 6.79109ZM3.073 16.625C3.073 16.3349 3.18823 16.0567 3.39335 15.8516C3.59847 15.6465 3.87667 15.5312 4.16675 15.5312C4.45683 15.5312 4.73503 15.6465 4.94015 15.8516C5.14526 16.0567 5.2605 16.3349 5.2605 16.625V22.0938H3.073V16.625ZM18.1667 16.8438C17.5286 16.8438 16.9165 17.0973 16.4653 17.5485C16.014 17.9998 15.7605 18.6118 15.7605 19.25V22.0938H13.573V19.25C13.573 18.6118 13.3195 17.9998 12.8682 17.5485C12.417 17.0973 11.8049 16.8438 11.1667 16.8438C10.5286 16.8438 9.91653 17.0973 9.46527 17.5485C9.01401 17.9998 8.7605 18.6118 8.7605 19.25V22.0938H6.573V14.6562H22.7605V22.0938H20.573V19.25C20.573 18.6118 20.3195 17.9998 19.8682 17.5485C19.417 17.0973 18.8049 16.8438 18.1667 16.8438ZM26.2605 22.0938H24.073V16.625C24.073 16.3349 24.1882 16.0567 24.3933 15.8516C24.5985 15.6465 24.8767 15.5312 25.1667 15.5312C25.4568 15.5312 25.735 15.6465 25.9401 15.8516C26.1453 16.0567 26.2605 16.3349 26.2605 16.625V22.0938Z" fill="#373838"/>
</svg>
