<svg width="30" height="43" viewBox="0 0 30 43" fill="none" xmlns="http://www.w3.org/2000/svg">
<g clip-path="url(#clip0_495_223)">
<path d="M11.7 17.9999H6C4.507 17.9999 3 16.8659 3 14.3339V9.29389C3.02103 6.99606 3.88143 4.7852 5.41918 3.07763C6.95693 1.37006 9.06592 0.283621 11.349 0.0228889C12.6374 -0.0706368 13.9308 0.114271 15.1413 0.565046C16.3518 1.01582 17.4512 1.7219 18.3646 2.63531C19.278 3.54871 19.9841 4.64804 20.4348 5.85859C20.8856 7.06913 21.0705 8.36253 20.977 9.65089C20.7159 11.9349 19.6286 14.0446 17.9198 15.5824C16.211 17.1203 13.9988 17.9801 11.7 17.9999ZM23 9.07989H22.988C22.988 9.31689 22.988 9.55389 22.976 9.79189C22.59 15.1999 17.647 19.7779 12.084 19.9809V19.9959C12.7846 21.211 13.7924 22.2206 15.0062 22.9233C16.2201 23.6261 17.5974 23.9973 19 23.9999H24C24.7956 23.9999 25.5587 23.6838 26.1213 23.1212C26.6839 22.5586 27 21.7955 27 20.9999V15.9999C26.9986 14.597 26.6282 13.2191 25.9262 12.0045C25.2241 10.79 24.215 9.78134 23 9.07989Z" fill="#B2B2B2"/>
</g>
<path d="M8.41992 32.2227H9.88477C9.83789 32.7812 9.68164 33.2793 9.41602 33.7168C9.15039 34.1504 8.77734 34.4922 8.29688 34.7422C7.81641 34.9922 7.23242 35.1172 6.54492 35.1172C6.01758 35.1172 5.54297 35.0234 5.12109 34.8359C4.69922 34.6445 4.33789 34.375 4.03711 34.0273C3.73633 33.6758 3.50586 33.252 3.3457 32.7559C3.18945 32.2598 3.11133 31.7051 3.11133 31.0918V30.3828C3.11133 29.7695 3.19141 29.2148 3.35156 28.7188C3.51562 28.2227 3.75 27.7988 4.05469 27.4473C4.35938 27.0918 4.72461 26.8203 5.15039 26.6328C5.58008 26.4453 6.0625 26.3516 6.59766 26.3516C7.27734 26.3516 7.85156 26.4766 8.32031 26.7266C8.78906 26.9766 9.15234 27.3223 9.41016 27.7637C9.67188 28.2051 9.83203 28.7109 9.89062 29.2812H8.42578C8.38672 28.9141 8.30078 28.5996 8.16797 28.3379C8.03906 28.0762 7.84766 27.877 7.59375 27.7402C7.33984 27.5996 7.00781 27.5293 6.59766 27.5293C6.26172 27.5293 5.96875 27.5918 5.71875 27.7168C5.46875 27.8418 5.25977 28.0254 5.0918 28.2676C4.92383 28.5098 4.79688 28.8086 4.71094 29.1641C4.62891 29.5156 4.58789 29.918 4.58789 30.3711V31.0918C4.58789 31.5215 4.625 31.9121 4.69922 32.2637C4.77734 32.6113 4.89453 32.9102 5.05078 33.1602C5.21094 33.4102 5.41406 33.6035 5.66016 33.7402C5.90625 33.877 6.20117 33.9453 6.54492 33.9453C6.96289 33.9453 7.30078 33.8789 7.55859 33.7461C7.82031 33.6133 8.01758 33.4199 8.15039 33.166C8.28711 32.9082 8.37695 32.5938 8.41992 32.2227ZM12.4746 26V35H11.0684V26H12.4746ZM12.2285 31.5957L11.7715 31.5898C11.7754 31.1523 11.8359 30.748 11.9531 30.377C12.0742 30.0059 12.2422 29.6836 12.457 29.4102C12.6758 29.1328 12.9375 28.9199 13.2422 28.7715C13.5469 28.6191 13.8848 28.543 14.2559 28.543C14.5684 28.543 14.8496 28.5859 15.0996 28.6719C15.3535 28.7578 15.5723 28.8965 15.7559 29.0879C15.9395 29.2754 16.0781 29.5215 16.1719 29.8262C16.2695 30.127 16.3184 30.4941 16.3184 30.9277V35H14.9004V30.916C14.9004 30.6113 14.8555 30.3691 14.7656 30.1895C14.6797 30.0098 14.5527 29.8809 14.3848 29.8027C14.2168 29.7207 14.0117 29.6797 13.7695 29.6797C13.5156 29.6797 13.291 29.7305 13.0957 29.832C12.9043 29.9336 12.7441 30.0723 12.6152 30.248C12.4863 30.4238 12.3887 30.627 12.3223 30.8574C12.2598 31.0879 12.2285 31.334 12.2285 31.5957ZM21.3223 33.7285V30.7051C21.3223 30.4785 21.2812 30.2832 21.1992 30.1191C21.1172 29.9551 20.9922 29.8281 20.8242 29.7383C20.6602 29.6484 20.4531 29.6035 20.2031 29.6035C19.9727 29.6035 19.7734 29.6426 19.6055 29.7207C19.4375 29.7988 19.3066 29.9043 19.2129 30.0371C19.1191 30.1699 19.0723 30.3203 19.0723 30.4883H17.666C17.666 30.2383 17.7266 29.9961 17.8477 29.7617C17.9688 29.5273 18.1445 29.3184 18.375 29.1348C18.6055 28.9512 18.8809 28.8066 19.2012 28.7012C19.5215 28.5957 19.8809 28.543 20.2793 28.543C20.7559 28.543 21.1777 28.623 21.5449 28.7832C21.916 28.9434 22.207 29.1855 22.418 29.5098C22.6328 29.8301 22.7402 30.2324 22.7402 30.7168V33.5352C22.7402 33.8242 22.7598 34.084 22.7988 34.3145C22.8418 34.541 22.9023 34.7383 22.9805 34.9062V35H21.5332C21.4668 34.8477 21.4141 34.6543 21.375 34.4199C21.3398 34.1816 21.3223 33.9512 21.3223 33.7285ZM21.5273 31.1445L21.5391 32.0176H20.5254C20.2637 32.0176 20.0332 32.043 19.834 32.0938C19.6348 32.1406 19.4688 32.2109 19.3359 32.3047C19.2031 32.3984 19.1035 32.5117 19.0371 32.6445C18.9707 32.7773 18.9375 32.9277 18.9375 33.0957C18.9375 33.2637 18.9766 33.418 19.0547 33.5586C19.1328 33.6953 19.2461 33.8027 19.3945 33.8809C19.5469 33.959 19.7305 33.998 19.9453 33.998C20.2344 33.998 20.4863 33.9395 20.7012 33.8223C20.9199 33.7012 21.0918 33.5547 21.2168 33.3828C21.3418 33.207 21.4082 33.041 21.416 32.8848L21.873 33.5117C21.8262 33.6719 21.7461 33.8438 21.6328 34.0273C21.5195 34.2109 21.3711 34.3867 21.1875 34.5547C21.0078 34.7188 20.791 34.8535 20.5371 34.959C20.2871 35.0645 19.998 35.1172 19.6699 35.1172C19.2559 35.1172 18.8867 35.0352 18.5625 34.8711C18.2383 34.7031 17.9844 34.4785 17.8008 34.1973C17.6172 33.9121 17.5254 33.5898 17.5254 33.2305C17.5254 32.8945 17.5879 32.5977 17.7129 32.3398C17.8418 32.0781 18.0293 31.8594 18.2754 31.6836C18.5254 31.5078 18.8301 31.375 19.1895 31.2852C19.5488 31.1914 19.959 31.1445 20.4199 31.1445H21.5273ZM27.123 28.6602V29.6914H23.5488V28.6602H27.123ZM24.5801 27.1074H25.9922V33.248C25.9922 33.4434 26.0195 33.5938 26.0742 33.6992C26.1328 33.8008 26.2129 33.8691 26.3145 33.9043C26.416 33.9395 26.5352 33.957 26.6719 33.957C26.7695 33.957 26.8633 33.9512 26.9531 33.9395C27.043 33.9277 27.1152 33.916 27.1699 33.9043L27.1758 34.9824C27.0586 35.0176 26.9219 35.0488 26.7656 35.0762C26.6133 35.1035 26.4375 35.1172 26.2383 35.1172C25.9141 35.1172 25.627 35.0605 25.377 34.9473C25.127 34.8301 24.9316 34.6406 24.791 34.3789C24.6504 34.1172 24.5801 33.7695 24.5801 33.3359V27.1074Z" fill="#B2B2B2"/>
<defs>
<clipPath id="clip0_495_223">
<rect width="24" height="24" fill="white" transform="translate(3)"/>
</clipPath>
</defs>
</svg>
