<svg width="18" height="18" viewBox="0 0 18 18" fill="none" xmlns="http://www.w3.org/2000/svg">
<circle cx="9" cy="9" r="9" fill="#FFBB00"/>
<path d="M7.5 4C6.67158 4 6 4.67158 6 5.5V12.5C6 13.3285 6.67158 14 7.5 14H10.5C11.3285 14 12 13.3285 12 12.5V5.5C12 4.67158 11.3285 4 10.5 4H7.5ZM7.25 6.375C7.25 6.1679 7.41789 6 7.625 6H10.375C10.5821 6 10.75 6.1679 10.75 6.375C10.75 6.5821 10.5821 6.75 10.375 6.75H7.625C7.41789 6.75 7.25 6.5821 7.25 6.375ZM7.25 11.875C7.25 11.6679 7.41789 11.5 7.625 11.5H10.375C10.5821 11.5 10.75 11.6679 10.75 11.875C10.75 12.0821 10.5821 12.25 10.375 12.25H7.625C7.41789 12.25 7.25 12.0821 7.25 11.875ZM7.25 10.375C7.25 10.1679 7.41789 10 7.625 10H10.375C10.5821 10 10.75 10.1679 10.75 10.375C10.75 10.5821 10.5821 10.75 10.375 10.75H7.625C7.41789 10.75 7.25 10.5821 7.25 10.375Z" fill="#F3F4F8"/>
</svg>
