<svg width="39" height="43" viewBox="0 0 39 43" fill="none" xmlns="http://www.w3.org/2000/svg">
<path d="M31.3767 23.52C31.2957 23.666 31.1791 23.7872 31.0387 23.8714C30.8984 23.9557 30.7391 24 30.5771 24H8.422C8.26004 23.9998 8.10097 23.9553 7.96077 23.871C7.82057 23.7867 7.70417 23.6655 7.62326 23.5196C7.54235 23.3737 7.49978 23.2083 7.49982 23.0398C7.49986 22.8714 7.54251 22.706 7.62349 22.5602C9.3809 19.401 12.0891 17.1357 15.2497 16.0618C13.6863 15.0941 12.4717 13.6195 11.7923 11.8646C11.1129 10.1096 11.0064 8.17123 11.489 6.34718C11.9716 4.52314 13.0168 2.91425 14.4639 1.76761C15.911 0.620961 17.6801 -4.57764e-05 19.4995 -4.57764e-05C21.3189 -4.57764e-05 23.088 0.620961 24.5352 1.76761C25.9823 2.91425 27.0274 4.52314 27.51 6.34718C27.9927 8.17123 27.8861 10.1096 27.2067 11.8646C26.5274 13.6195 25.3127 15.0941 23.7494 16.0618C26.9099 17.1357 29.6182 19.401 31.3756 22.5602C31.4568 22.706 31.4996 22.8714 31.4998 23.0399C31.5 23.2084 31.4576 23.374 31.3767 23.52Z" fill="#B2B2B2"/>
<path d="M6.07031 31.8184H3.84961V30.6523H6.07031C6.45703 30.6523 6.76953 30.5898 7.00781 30.4648C7.24609 30.3398 7.41992 30.168 7.5293 29.9492C7.64258 29.7266 7.69922 29.4727 7.69922 29.1875C7.69922 28.918 7.64258 28.666 7.5293 28.4316C7.41992 28.1934 7.24609 28.002 7.00781 27.8574C6.76953 27.7129 6.45703 27.6406 6.07031 27.6406H4.30078V35H2.83008V26.4688H6.07031C6.73047 26.4688 7.29102 26.5859 7.75195 26.8203C8.2168 27.0508 8.57031 27.3711 8.8125 27.7812C9.05469 28.1875 9.17578 28.6523 9.17578 29.1758C9.17578 29.7266 9.05469 30.1992 8.8125 30.5938C8.57031 30.9883 8.2168 31.291 7.75195 31.502C7.29102 31.7129 6.73047 31.8184 6.07031 31.8184ZM11.7715 29.8672V35H10.3594V28.6602H11.707L11.7715 29.8672ZM13.7109 28.6191L13.6992 29.9316C13.6133 29.916 13.5195 29.9043 13.418 29.8965C13.3203 29.8887 13.2227 29.8848 13.125 29.8848C12.8828 29.8848 12.6699 29.9199 12.4863 29.9902C12.3027 30.0566 12.1484 30.1543 12.0234 30.2832C11.9023 30.4082 11.8086 30.5605 11.7422 30.7402C11.6758 30.9199 11.6367 31.1211 11.625 31.3438L11.3027 31.3672C11.3027 30.9688 11.3418 30.5996 11.4199 30.2598C11.498 29.9199 11.6152 29.6211 11.7715 29.3633C11.9316 29.1055 12.1309 28.9043 12.3691 28.7598C12.6113 28.6152 12.8906 28.543 13.207 28.543C13.293 28.543 13.3848 28.5508 13.4824 28.5664C13.584 28.582 13.6602 28.5996 13.7109 28.6191ZM14.1738 31.9004V31.7656C14.1738 31.3086 14.2402 30.8848 14.373 30.4941C14.5059 30.0996 14.6973 29.7578 14.9473 29.4688C15.2012 29.1758 15.5098 28.9492 15.873 28.7891C16.2402 28.625 16.6543 28.543 17.1152 28.543C17.5801 28.543 17.9941 28.625 18.3574 28.7891C18.7246 28.9492 19.0352 29.1758 19.2891 29.4688C19.543 29.7578 19.7363 30.0996 19.8691 30.4941C20.002 30.8848 20.0684 31.3086 20.0684 31.7656V31.9004C20.0684 32.3574 20.002 32.7812 19.8691 33.1719C19.7363 33.5625 19.543 33.9043 19.2891 34.1973C19.0352 34.4863 18.7266 34.7129 18.3633 34.877C18 35.0371 17.5879 35.1172 17.127 35.1172C16.6621 35.1172 16.2461 35.0371 15.8789 34.877C15.5156 34.7129 15.207 34.4863 14.9531 34.1973C14.6992 33.9043 14.5059 33.5625 14.373 33.1719C14.2402 32.7812 14.1738 32.3574 14.1738 31.9004ZM15.5859 31.7656V31.9004C15.5859 32.1855 15.6152 32.4551 15.6738 32.709C15.7324 32.9629 15.8242 33.1855 15.9492 33.377C16.0742 33.5684 16.2344 33.7188 16.4297 33.8281C16.625 33.9375 16.8574 33.9922 17.127 33.9922C17.3887 33.9922 17.6152 33.9375 17.8066 33.8281C18.002 33.7188 18.1621 33.5684 18.2871 33.377C18.4121 33.1855 18.5039 32.9629 18.5625 32.709C18.625 32.4551 18.6562 32.1855 18.6562 31.9004V31.7656C18.6562 31.4844 18.625 31.2188 18.5625 30.9688C18.5039 30.7148 18.4102 30.4902 18.2812 30.2949C18.1562 30.0996 17.9961 29.9473 17.8008 29.8379C17.6094 29.7246 17.3809 29.668 17.1152 29.668C16.8496 29.668 16.6191 29.7246 16.4238 29.8379C16.2324 29.9473 16.0742 30.0996 15.9492 30.2949C15.8242 30.4902 15.7324 30.7148 15.6738 30.9688C15.6152 31.2188 15.5859 31.4844 15.5859 31.7656ZM23.0684 35H21.6504V28.25C21.6504 27.7383 21.752 27.3066 21.9551 26.9551C22.1621 26.6035 22.457 26.3359 22.8398 26.1523C23.2266 25.9688 23.6855 25.877 24.2168 25.877C24.5293 25.877 24.8301 25.9102 25.1191 25.9766C25.4121 26.043 25.7148 26.127 26.0273 26.2285L25.8105 27.377C25.6113 27.3105 25.3906 27.248 25.1484 27.1895C24.9062 27.127 24.627 27.0957 24.3105 27.0957C23.8848 27.0957 23.5703 27.1934 23.3672 27.3887C23.168 27.5801 23.0684 27.8672 23.0684 28.25V35ZM24.3398 28.6602V29.6914H20.6777V28.6602H24.3398ZM26.6953 28.6602V35H25.2832V28.6602H26.6953ZM29.7832 26V35H28.3652V26H29.7832ZM34.125 35.1172C33.6562 35.1172 33.2324 35.041 32.8535 34.8887C32.4785 34.7324 32.1582 34.5156 31.8926 34.2383C31.6309 33.9609 31.4297 33.6348 31.2891 33.2598C31.1484 32.8848 31.0781 32.4805 31.0781 32.0469V31.8125C31.0781 31.3164 31.1504 30.8672 31.2949 30.4648C31.4395 30.0625 31.6406 29.7188 31.8984 29.4336C32.1562 29.1445 32.4609 28.9238 32.8125 28.7715C33.1641 28.6191 33.5449 28.543 33.9551 28.543C34.4082 28.543 34.8047 28.6191 35.1445 28.7715C35.4844 28.9238 35.7656 29.1387 35.9883 29.416C36.2148 29.6895 36.3828 30.0156 36.4922 30.3945C36.6055 30.7734 36.6621 31.1914 36.6621 31.6484V32.252H31.7637V31.2383H35.2676V31.127C35.2598 30.873 35.209 30.6348 35.1152 30.4121C35.0254 30.1895 34.8867 30.0098 34.6992 29.873C34.5117 29.7363 34.2617 29.668 33.9492 29.668C33.7148 29.668 33.5059 29.7188 33.3223 29.8203C33.1426 29.918 32.9922 30.0605 32.8711 30.248C32.75 30.4355 32.6562 30.6621 32.5898 30.9277C32.5273 31.1895 32.4961 31.4844 32.4961 31.8125V32.0469C32.4961 32.3242 32.5332 32.582 32.6074 32.8203C32.6855 33.0547 32.7988 33.2598 32.9473 33.4355C33.0957 33.6113 33.2754 33.75 33.4863 33.8516C33.6973 33.9492 33.9375 33.998 34.207 33.998C34.5469 33.998 34.8496 33.9297 35.1152 33.793C35.3809 33.6562 35.6113 33.4629 35.8066 33.2129L36.5508 33.9336C36.4141 34.1328 36.2363 34.3242 36.0176 34.5078C35.7988 34.6875 35.5312 34.834 35.2148 34.9473C34.9023 35.0605 34.5391 35.1172 34.125 35.1172Z" fill="#B2B2B2"/>
</svg>
