<svg width="12" height="13" viewBox="0 0 12 13" fill="none" xmlns="http://www.w3.org/2000/svg">
<g clip-path="url(#clip0_301_2452)">
<path d="M0.663352 6.70016L2.44335 8.00016L1.76735 10.0937C1.65811 10.4184 1.65672 10.7697 1.76341 11.0952C1.87009 11.4208 2.07913 11.7031 2.35935 11.9002C2.63478 12.1036 2.96855 12.2125 3.31093 12.2108C3.65331 12.2091 3.98597 12.0968 4.25935 11.8907L5.99985 10.6097L7.74085 11.8892C8.01578 12.0914 8.34775 12.2012 8.68904 12.2029C9.03033 12.2046 9.36335 12.098 9.64024 11.8984C9.91712 11.6989 10.1236 11.4167 10.23 11.0924C10.3364 10.7681 10.3372 10.4184 10.2324 10.0937L9.55635 8.00016L11.3364 6.70016C11.6109 6.49941 11.815 6.21704 11.9195 5.89336C12.024 5.56968 12.0236 5.22125 11.9182 4.89785C11.8128 4.57446 11.608 4.29262 11.3329 4.09261C11.0578 3.8926 10.7265 3.78465 10.3864 3.78416H8.19985L7.53635 1.71616C7.43201 1.39064 7.22699 1.10667 6.95084 0.905193C6.67469 0.703719 6.34169 0.595154 5.99985 0.595154C5.65802 0.595154 5.32502 0.703719 5.04887 0.905193C4.77272 1.10667 4.56769 1.39064 4.46335 1.71616L3.79985 3.78416H1.61535C1.27522 3.78465 0.943948 3.8926 0.668842 4.09261C0.393736 4.29262 0.188873 4.57446 0.083513 4.89785C-0.0218467 5.22125 -0.022313 5.56968 0.0821806 5.89336C0.186674 6.21704 0.390783 6.49941 0.665352 6.70016H0.663352Z" fill="#62BEC1"/>
</g>
<mask id="mask0_301_2452" style="mask-type:alpha" maskUnits="userSpaceOnUse" x="0" y="0" width="12" height="13">
<g clip-path="url(#clip1_301_2452)">
<path d="M0.663352 6.70016L2.44335 8.00016L1.76735 10.0937C1.65811 10.4184 1.65672 10.7697 1.76341 11.0952C1.87009 11.4208 2.07913 11.7031 2.35935 11.9002C2.63478 12.1036 2.96855 12.2125 3.31093 12.2108C3.65331 12.2091 3.98597 12.0968 4.25935 11.8907L5.99985 10.6097L7.74085 11.8892C8.01578 12.0914 8.34775 12.2012 8.68904 12.2029C9.03033 12.2046 9.36335 12.098 9.64023 11.8984C9.91712 11.6989 10.1236 11.4167 10.23 11.0924C10.3364 10.7681 10.3372 10.4184 10.2324 10.0937L9.55635 8.00016L11.3364 6.70016C11.6109 6.49942 11.815 6.21704 11.9195 5.89336C12.024 5.56968 12.0236 5.22125 11.9182 4.89785C11.8128 4.57446 11.608 4.29262 11.3329 4.09261C11.0578 3.8926 10.7265 3.78465 10.3864 3.78416H8.19985L7.53635 1.71616C7.43201 1.39064 7.22699 1.10667 6.95084 0.905193C6.67469 0.703719 6.34169 0.595154 5.99985 0.595154C5.65802 0.595154 5.32502 0.703719 5.04887 0.905193C4.77272 1.10667 4.56769 1.39064 4.46335 1.71616L3.79985 3.78416H1.61535C1.27522 3.78465 0.943948 3.8926 0.668842 4.09261C0.393736 4.29262 0.188873 4.57446 0.083513 4.89785C-0.0218467 5.22125 -0.022313 5.56968 0.0821806 5.89336C0.186674 6.21704 0.390783 6.49942 0.665352 6.70016H0.663352Z" fill="#F5F5F5"/>
</g>
</mask>
<g mask="url(#mask0_301_2452)">
<rect x="6" y="-2.92859" width="8.57143" height="16.2857" fill="#E5E5E5"/>
</g>
<defs>
<clipPath id="clip0_301_2452">
<rect width="12" height="12" fill="white" transform="translate(0 0.5)"/>
</clipPath>
<clipPath id="clip1_301_2452">
<rect width="12" height="12" fill="white" transform="translate(0 0.5)"/>
</clipPath>
</defs>
</svg>
