<svg width="18" height="14" viewBox="0 0 18 14" fill="none" xmlns="http://www.w3.org/2000/svg">
<path d="M5.48748 10L3.33148 6.192H2.40748V10H0.447484V0.228H4.11548C4.87148 0.228 5.51548 0.363333 6.04748 0.634C6.57948 0.895333 6.97615 1.25467 7.23748 1.712C7.50815 2.16 7.64348 2.664 7.64348 3.224C7.64348 3.868 7.45682 4.45133 7.08349 4.974C6.71015 5.48733 6.15482 5.842 5.41748 6.038L7.75548 10H5.48748ZM2.40748 4.722H4.04548C4.57748 4.722 4.97415 4.596 5.23548 4.344C5.49682 4.08267 5.62748 3.72333 5.62748 3.266C5.62748 2.818 5.49682 2.47267 5.23548 2.23C4.97415 1.978 4.57748 1.852 4.04548 1.852H2.40748V4.722ZM10.9562 3.364C11.2082 3.00933 11.5536 2.71533 11.9922 2.482C12.4402 2.23933 12.9489 2.118 13.5182 2.118C14.1809 2.118 14.7782 2.28133 15.3102 2.608C15.8516 2.93467 16.2762 3.40133 16.5842 4.008C16.9016 4.60533 17.0602 5.30067 17.0602 6.094C17.0602 6.88733 16.9016 7.592 16.5842 8.208C16.2762 8.81467 15.8516 9.286 15.3102 9.622C14.7782 9.958 14.1809 10.126 13.5182 10.126C12.9489 10.126 12.4449 10.0093 12.0062 9.776C11.5769 9.54267 11.2269 9.24867 10.9562 8.894V13.696H8.99623V2.244H10.9562V3.364ZM15.0582 6.094C15.0582 5.62733 14.9602 5.226 14.7642 4.89C14.5776 4.54467 14.3256 4.28333 14.0082 4.106C13.7002 3.92867 13.3642 3.84 13.0002 3.84C12.6456 3.84 12.3096 3.93333 11.9922 4.12C11.6842 4.29733 11.4322 4.55867 11.2362 4.904C11.0496 5.24933 10.9562 5.65533 10.9562 6.122C10.9562 6.58867 11.0496 6.99467 11.2362 7.34C11.4322 7.68533 11.6842 7.95133 11.9922 8.138C12.3096 8.31533 12.6456 8.404 13.0002 8.404C13.3642 8.404 13.7002 8.31067 14.0082 8.124C14.3256 7.93733 14.5776 7.67133 14.7642 7.326C14.9602 6.98067 15.0582 6.57 15.0582 6.094Z" fill="#4D4E4E"/>
</svg>
