<svg width="18" height="18" viewBox="0 0 18 18" fill="none" xmlns="http://www.w3.org/2000/svg">
<circle cx="9" cy="9" r="9" fill="#A1A4A4"/>
<path d="M11.2499 12.7144C11.5086 12.6125 11.7593 12.4914 11.9999 12.3521V14.2501C11.9999 14.3495 11.9604 14.4449 11.89 14.5152C11.8197 14.5856 11.7243 14.6251 11.6249 14.6251C11.5254 14.6251 11.43 14.5856 11.3597 14.5152C11.2894 14.4449 11.2499 14.3495 11.2499 14.2501V12.7144ZM11.8011 8.56928L9.17613 7.16912C9.08855 7.12439 8.9869 7.11585 8.89309 7.14534C8.79927 7.17484 8.7208 7.24 8.67457 7.3268C8.62834 7.41361 8.61806 7.51509 8.64594 7.6094C8.67382 7.70371 8.73764 7.78329 8.82363 7.831L11.0155 9.00006L11.8124 8.57537L11.8011 8.56928ZM14.8011 7.16912L9.17613 4.16912C9.12188 4.14023 9.06135 4.12512 8.99988 4.12512C8.93841 4.12512 8.87789 4.14023 8.82363 4.16912L3.19863 7.16912C3.13863 7.2011 3.08846 7.24878 3.05347 7.30707C3.01848 7.36537 3 7.43207 3 7.50006C3 7.56805 3.01848 7.63475 3.05347 7.69305C3.08846 7.75134 3.13863 7.79902 3.19863 7.831L4.49988 8.52522V10.7949C4.49949 10.9791 4.56728 11.1569 4.6902 11.2941C5.30426 11.978 6.68004 13.1251 8.99988 13.1251C9.76908 13.1314 10.5325 12.9921 11.2499 12.7144V9.12522L11.0155 9.00006L8.99988 10.0749L5.05441 7.96881L4.17176 7.50006L8.99988 4.92522L13.828 7.50006L12.9477 7.96881H12.9449L11.8124 8.57537C11.8694 8.60829 11.9167 8.65564 11.9497 8.71267C11.9826 8.76969 11.9999 8.83437 11.9999 8.90022V12.3521C12.4889 12.0698 12.9308 11.7128 13.3096 11.2941C13.4325 11.1569 13.5003 10.9791 13.4999 10.7949V8.52522L14.8011 7.831C14.8611 7.79902 14.9113 7.75134 14.9463 7.69305C14.9813 7.63475 14.9998 7.56805 14.9998 7.50006C14.9998 7.43207 14.9813 7.36537 14.9463 7.30707C14.9113 7.24878 14.8611 7.2011 14.8011 7.16912Z" fill="#F3F4F8"/>
</svg>
