<svg width="18" height="18" viewBox="0 0 18 18" fill="none" xmlns="http://www.w3.org/2000/svg">
<circle cx="9" cy="9" r="9" fill="#5491F5"/>
<path d="M13.125 4.875H4.875C4.67609 4.875 4.48532 4.95402 4.34467 5.09467C4.20402 5.23532 4.125 5.42609 4.125 5.625V12.375C4.125 12.5739 4.20402 12.7647 4.34467 12.9053C4.48532 13.046 4.67609 13.125 4.875 13.125H13.125C13.3239 13.125 13.5147 13.046 13.6553 12.9053C13.796 12.7647 13.875 12.5739 13.875 12.375V5.625C13.875 5.42609 13.796 5.23532 13.6553 5.09467C13.5147 4.95402 13.3239 4.875 13.125 4.875ZM9 9.375C8.40345 9.37438 7.83152 9.13713 7.4097 8.7153C6.98787 8.29348 6.75062 7.72155 6.75 7.125C6.75 7.02554 6.78951 6.93016 6.85984 6.85984C6.93016 6.78951 7.02554 6.75 7.125 6.75C7.22446 6.75 7.31984 6.78951 7.39016 6.85984C7.46049 6.93016 7.5 7.02554 7.5 7.125C7.5 7.52282 7.65804 7.90436 7.93934 8.18566C8.22064 8.46696 8.60218 8.625 9 8.625C9.39782 8.625 9.77936 8.46696 10.0607 8.18566C10.342 7.90436 10.5 7.52282 10.5 7.125C10.5 7.02554 10.5395 6.93016 10.6098 6.85984C10.6802 6.78951 10.7755 6.75 10.875 6.75C10.9745 6.75 11.0698 6.78951 11.1402 6.85984C11.2105 6.93016 11.25 7.02554 11.25 7.125C11.2494 7.72155 11.0121 8.29348 10.5903 8.7153C10.1685 9.13713 9.59655 9.37438 9 9.375Z" fill="#F3F4F8"/>
</svg>
