<svg width="25" height="24" viewBox="0 0 25 24" fill="none" xmlns="http://www.w3.org/2000/svg">
<path d="M6.33337 22.125C6.33337 22.3475 6.26739 22.565 6.14378 22.75C6.02016 22.935 5.84446 23.0792 5.63889 23.1644C5.43333 23.2495 5.20713 23.2718 4.9889 23.2284C4.77067 23.185 4.57021 23.0778 4.41288 22.9205C4.25555 22.7632 4.1484 22.5627 4.10499 22.3445C4.06158 22.1263 4.08386 21.9001 4.16901 21.6945C4.25416 21.4889 4.39835 21.3132 4.58336 21.1896C4.76836 21.066 4.98587 21 5.20837 21C5.50674 21 5.79289 21.1185 6.00387 21.3295C6.21485 21.5405 6.33337 21.8266 6.33337 22.125ZM8.20837 18C7.98587 18 7.76836 18.066 7.58336 18.1896C7.39835 18.3132 7.25416 18.4889 7.16901 18.6945C7.08386 18.9001 7.06158 19.1263 7.10499 19.3445C7.1484 19.5627 7.25555 19.7632 7.41288 19.9205C7.57021 20.0778 7.77067 20.185 7.9889 20.2284C8.20713 20.2718 8.43333 20.2495 8.63889 20.1644C8.84446 20.0792 9.02016 19.935 9.14378 19.75C9.26739 19.565 9.33337 19.3475 9.33337 19.125C9.33337 18.8266 9.21485 18.5405 9.00387 18.3295C8.79289 18.1185 8.50674 18 8.20837 18ZM2.20837 18C1.98587 18 1.76836 18.066 1.58336 18.1896C1.39835 18.3132 1.25416 18.4889 1.16901 18.6945C1.08386 18.9001 1.06158 19.1263 1.10499 19.3445C1.1484 19.5627 1.25555 19.7632 1.41288 19.9205C1.57021 20.0778 1.77067 20.185 1.9889 20.2284C2.20713 20.2718 2.43333 20.2495 2.63889 20.1644C2.84446 20.0792 3.02016 19.935 3.14378 19.75C3.26739 19.565 3.33337 19.3475 3.33337 19.125C3.33337 18.8266 3.21485 18.5405 3.00387 18.3295C2.79289 18.1185 2.50674 18 2.20837 18ZM5.20837 15C4.98587 15 4.76836 15.066 4.58336 15.1896C4.39835 15.3132 4.25416 15.4889 4.16901 15.6945C4.08386 15.9001 4.06158 16.1263 4.10499 16.3445C4.1484 16.5627 4.25555 16.7632 4.41288 16.9205C4.57021 17.0778 4.77067 17.185 4.9889 17.2284C5.20713 17.2718 5.43333 17.2495 5.63889 17.1644C5.84446 17.0792 6.02016 16.935 6.14378 16.75C6.26739 16.565 6.33337 16.3475 6.33337 16.125C6.33337 15.8266 6.21485 15.5405 6.00387 15.3295C5.79289 15.1185 5.50674 15 5.20837 15ZM23.5834 3.00001H20.8937C20.6966 2.99938 20.5014 3.03792 20.3194 3.11341C20.1374 3.18889 19.9722 3.2998 19.8334 3.4397L17.2215 6.05063L5.33775 8.08032C5.06577 8.12549 4.8115 8.24475 4.60286 8.42499C4.39423 8.60523 4.23932 8.83949 4.15513 9.10203C4.07094 9.36457 4.06074 9.64523 4.12565 9.91319C4.19056 10.1811 4.32806 10.426 4.52306 10.6209L13.7106 19.8084C13.9053 20.0031 14.1499 20.1405 14.4175 20.2054C14.6852 20.2703 14.9655 20.2602 15.2278 20.1764C15.4901 20.0925 15.7243 19.9381 15.9046 19.73C16.085 19.5219 16.2045 19.2681 16.2502 18.9966L18.2827 7.11188L20.8937 4.50001H23.5834C23.7823 4.50001 23.9731 4.42099 24.1137 4.28034C24.2544 4.13969 24.3334 3.94892 24.3334 3.75001C24.3334 3.5511 24.2544 3.36033 24.1137 3.21968C23.9731 3.07903 23.7823 3.00001 23.5834 3.00001Z" fill="#F3F4F8"/>
</svg>
