<svg width="29" height="28" viewBox="0 0 29 28" fill="none" xmlns="http://www.w3.org/2000/svg">
<path d="M24.073 9.89625V7.875C24.073 6.77269 23.6352 5.71554 22.8557 4.93609C22.0763 4.15664 21.0191 3.71875 19.9168 3.71875H9.4168C8.31449 3.71875 7.25733 4.15664 6.47788 4.93609C5.69844 5.71554 5.26055 6.77269 5.26055 7.875V9.89625C4.28415 10.0521 3.39529 10.5509 2.75359 11.3032C2.1119 12.0554 1.7594 13.0118 1.7594 14.0005C1.7594 14.9893 2.1119 15.9457 2.75359 16.6979C3.39529 17.4502 4.28415 17.949 5.26055 18.1048V21.875C5.26055 22.2811 5.42187 22.6706 5.70904 22.9578C5.9962 23.2449 6.38568 23.4062 6.7918 23.4062H22.5418C22.9479 23.4062 23.3374 23.2449 23.6246 22.9578C23.9117 22.6706 24.073 22.2811 24.073 21.875V18.1048C25.0459 17.9455 25.9304 17.4455 26.5686 16.6941C27.2069 15.9428 27.5573 14.9891 27.5573 14.0033C27.5573 13.0175 27.2069 12.0637 26.5686 11.3124C25.9304 10.5611 25.0459 10.0611 24.073 9.90172V9.89625ZM9.4168 5.03125H19.9168C20.671 5.03125 21.3943 5.33086 21.9276 5.86417C22.4609 6.39747 22.7605 7.12079 22.7605 7.875V9.89625C21.7849 10.0534 20.897 10.5525 20.2558 11.3044C19.6145 12.0563 19.2617 13.0118 19.2605 14V14.2188H10.073V14C10.0719 13.0118 9.71906 12.0563 9.0778 11.3044C8.43655 10.5525 7.54867 10.0534 6.57305 9.89625V7.875C6.57305 7.12079 6.87265 6.39747 7.40596 5.86417C7.93927 5.33086 8.66259 5.03125 9.4168 5.03125ZM23.4551 16.8438H23.4168C23.2427 16.8438 23.0758 16.9129 22.9528 17.036C22.8297 17.159 22.7605 17.326 22.7605 17.5V21.875C22.7605 21.933 22.7375 21.9887 22.6965 22.0297C22.6555 22.0707 22.5998 22.0938 22.5418 22.0938H6.7918C6.73378 22.0938 6.67814 22.0707 6.63712 22.0297C6.59609 21.9887 6.57305 21.933 6.57305 21.875V17.5C6.57305 17.326 6.50391 17.159 6.38083 17.036C6.25776 16.9129 6.09084 16.8438 5.9168 16.8438H5.87851C5.31777 16.8362 4.77177 16.663 4.30918 16.346C3.84659 16.029 3.48806 15.5822 3.27868 15.062C3.06931 14.5417 3.01842 13.9712 3.13243 13.4221C3.24645 12.873 3.52026 12.3699 3.91945 11.976C4.31864 11.5821 4.82537 11.3151 5.37594 11.2084C5.9265 11.1018 6.49631 11.1603 7.01371 11.3766C7.53111 11.5929 7.973 11.9574 8.28382 12.4241C8.59463 12.8909 8.76049 13.4392 8.76055 14V18.375C8.76055 18.549 8.82969 18.716 8.95276 18.839C9.07583 18.9621 9.24275 19.0312 9.4168 19.0312C9.59084 19.0312 9.75776 18.9621 9.88083 18.839C10.0039 18.716 10.073 18.549 10.073 18.375V15.5312H19.2605V18.375C19.2605 18.549 19.3297 18.716 19.4528 18.839C19.5758 18.9621 19.7427 19.0312 19.9168 19.0312C20.0908 19.0312 20.2578 18.9621 20.3808 18.839C20.5039 18.716 20.573 18.549 20.573 18.375V14C20.5731 13.4392 20.739 12.8909 21.0498 12.4241C21.3606 11.9574 21.8025 11.5929 22.3199 11.3766C22.8373 11.1603 23.4071 11.1018 23.9577 11.2084C24.5082 11.3151 25.015 11.5821 25.4141 11.976C25.8133 12.3699 26.0871 12.873 26.2012 13.4221C26.3152 13.9712 26.2643 14.5417 26.0549 15.062C25.8455 15.5822 25.487 16.029 25.0244 16.346C24.5618 16.663 24.0158 16.8362 23.4551 16.8438Z" fill="#343330"/>
</svg>
