<svg width="9" height="9" viewBox="0 0 9 9" fill="none" xmlns="http://www.w3.org/2000/svg">
<path d="M7.82811 3.83499L6.41873 5.06499L6.84092 6.89624C6.86326 6.99198 6.85689 7.09217 6.82259 7.1843C6.7883 7.27643 6.72761 7.3564 6.64811 7.41423C6.56861 7.47205 6.47383 7.50516 6.37562 7.50941C6.2774 7.51366 6.18012 7.48886 6.09592 7.43812L4.49873 6.46937L2.90498 7.43812C2.82079 7.48886 2.7235 7.51366 2.62529 7.50941C2.52707 7.50516 2.43229 7.47205 2.35279 7.41423C2.27329 7.3564 2.2126 7.27643 2.17831 7.1843C2.14402 7.09217 2.13764 6.99198 2.15998 6.89624L2.58154 5.06687L1.17186 3.83499C1.0973 3.77069 1.04338 3.6858 1.01688 3.59098C0.990367 3.49615 0.992445 3.39561 1.02285 3.30197C1.05325 3.20832 1.11063 3.12573 1.18778 3.06456C1.26494 3.00339 1.35843 2.96636 1.45655 2.95812L3.31467 2.79718L4.03998 1.06718C4.07786 0.976405 4.14175 0.898865 4.2236 0.844324C4.30546 0.789784 4.40162 0.760681 4.49998 0.760681C4.59834 0.760681 4.69451 0.789784 4.77636 0.844324C4.85822 0.898865 4.92211 0.976405 4.95998 1.06718L5.68748 2.79718L7.54498 2.95812C7.6431 2.96636 7.73659 3.00339 7.81375 3.06456C7.8909 3.12573 7.94827 3.20832 7.97868 3.30197C8.00908 3.39561 8.01116 3.49615 7.98465 3.59098C7.95814 3.6858 7.90423 3.77069 7.82967 3.83499H7.82811Z" fill="white"/>
</svg>
