<svg width="29" height="28" viewBox="0 0 29 28" fill="none" xmlns="http://www.w3.org/2000/svg">
<g clip-path="url(#clip0_281_2152)">
<path d="M24.3034 23.46H4.36337C2.14337 23.46 0.333374 21.3116 0.333374 18.6768V4.78321C0.333374 2.14839 2.14337 0 4.36337 0H24.3034C26.5234 0 28.3334 2.14839 28.3334 4.78321V18.6768C28.3334 21.3116 26.5234 23.46 24.3034 23.46ZM4.36337 1.27687C2.73337 1.27687 1.40337 2.84763 1.40337 4.78321V18.6768C1.40337 20.6124 2.73337 22.1831 4.36337 22.1831H24.3034C25.9334 22.1831 27.2634 20.6124 27.2634 18.6768V4.78321C27.2634 2.84763 25.9334 1.27687 24.3034 1.27687H4.36337Z" fill="#231F20"/>
<path d="M24.0633 21.4231H4.60333C3.19333 21.4231 2.04333 20.0651 2.04333 18.393V4.9048C2.04333 3.2327 3.19333 1.87476 4.60333 1.87476H24.0633C25.4733 1.87476 26.6233 3.2327 26.6233 4.9048V18.393C26.6233 20.0651 25.4733 21.4231 24.0633 21.4231ZM4.60333 3.14149C3.78333 3.14149 3.12333 3.93194 3.12333 4.9048V18.393C3.12333 19.3659 3.79333 20.1563 4.60333 20.1563H24.0633C24.8833 20.1563 25.5433 19.3659 25.5433 18.393V4.9048C25.5433 3.93194 24.8733 3.14149 24.0633 3.14149H4.60333Z" fill="#231F20"/>
<path d="M26.6233 28H2.04333V27.0272C2.04333 25.5577 3.05333 24.3619 4.28333 24.3619H24.3733C25.6133 24.3619 26.6133 25.5577 26.6133 27.0272V28H26.6233ZM3.15333 26.7231H25.5233C25.4033 26.105 24.9333 25.6388 24.3833 25.6388H4.29333C3.73334 25.6388 3.27333 26.105 3.15333 26.7231Z" fill="#231F20"/>
<path d="M16.4434 25.4463H12.2134V22.3555H16.4434V25.4463ZM13.2934 24.3721H15.3734V23.4195H13.2934V24.3721Z" fill="#231F20"/>
<path d="M19.1834 10.5494L11.1134 16.0724C10.8234 16.2751 10.4434 16.1535 10.2734 15.8089C10.1034 15.4542 10.2034 15.0083 10.5034 14.8057L18.5734 9.28268C18.8634 9.08 19.2434 9.2016 19.4134 9.54616C19.5834 9.90084 19.4834 10.3467 19.1834 10.5494Z" fill="#231F20"/>
<path d="M15.8333 9.09009L11.0333 12.3735C10.7933 12.5356 10.4933 12.4444 10.3533 12.1607L10.2333 11.9175C10.0933 11.6337 10.1733 11.2689 10.4133 11.1067L15.2133 7.82335C15.4533 7.66121 15.7533 7.75242 15.8933 8.03617L16.0133 8.27938C16.1533 8.56313 16.0733 8.92795 15.8333 9.09009Z" fill="#231F20"/>
</g>
<defs>
<clipPath id="clip0_281_2152">
<rect width="28" height="28" fill="white" transform="translate(0.333374)"/>
</clipPath>
</defs>
</svg>
