<svg width="18" height="18" viewBox="0 0 18 18" fill="none" xmlns="http://www.w3.org/2000/svg">
<path d="M13.4997 11.625C13.4009 11.6255 13.3031 11.6066 13.2117 11.5693C13.1203 11.532 13.0372 11.477 12.9672 11.4075L9.53215 7.96498C9.46243 7.89469 9.37948 7.83889 9.28808 7.80081C9.19669 7.76274 9.09866 7.74313 8.99965 7.74313C8.90064 7.74313 8.80261 7.76274 8.71122 7.80081C8.61982 7.83889 8.53687 7.89469 8.46715 7.96498L5.03215 11.4075C4.89092 11.5487 4.69938 11.628 4.49965 11.628C4.29992 11.628 4.10838 11.5487 3.96715 11.4075C3.82592 11.2662 3.74658 11.0747 3.74658 10.875C3.74658 10.7761 3.76606 10.6782 3.80391 10.5868C3.84175 10.4954 3.89722 10.4124 3.96715 10.3425L7.40965 6.90748C7.83711 6.49681 8.40688 6.26746 8.99965 6.26746C9.59242 6.26746 10.1622 6.49681 10.5897 6.90748L14.0322 10.3425C14.1024 10.4122 14.1582 10.4952 14.1963 10.5865C14.2344 10.6779 14.254 10.776 14.254 10.875C14.254 10.974 14.2344 11.072 14.1963 11.1634C14.1582 11.2548 14.1024 11.3378 14.0322 11.4075C13.9621 11.477 13.879 11.532 13.7876 11.5693C13.6962 11.6066 13.5984 11.6255 13.4997 11.625Z" fill="#373838"/>
</svg>
