<svg width="25" height="24" viewBox="0 0 25 24" fill="none" xmlns="http://www.w3.org/2000/svg">
<path d="M6.75 22C8.61748 22 10.1861 20.7202 10.6266 18.9899C10.7628 18.4547 11.1977 18 11.75 18H18.75M6.75 22C4.54086 22 2.75 20.2091 2.75 18V5C2.75 3.34315 4.09315 2 5.75 2H15.75C17.4069 2 18.75 3.34315 18.75 5V18M6.75 22H18.75C20.6175 22 22.1861 20.7202 22.6266 18.9899C22.7628 18.4547 22.3023 18 21.75 18H18.75M7.75 10L9.33579 8.41421C10.1168 7.63317 11.3832 7.63316 12.1642 8.41421L13.75 10M10.75 8V13" stroke="#A9ACB3" stroke-width="1.5" stroke-linecap="round"/>
</svg>
