<svg width="39" height="35" viewBox="0 0 39 35" fill="none" xmlns="http://www.w3.org/2000/svg">
<g clip-path="url(#clip0_169_1921)">
<path d="M31.947 24.7151H29.4577C29.2286 24.7151 29.0428 24.5282 29.0428 24.2976C29.0428 24.0671 29.2286 23.8801 29.4577 23.8801H31.947C35.3784 23.8801 38.1704 21.0704 38.1704 17.6173C38.1704 14.1641 35.3784 11.3544 31.947 11.3544H31.8871C31.7668 11.3544 31.6524 11.302 31.5736 11.2104C31.4948 11.1188 31.4592 10.9975 31.4764 10.8776C31.5134 10.6175 31.5321 10.3563 31.5321 10.1019C31.5321 7.10917 29.1123 4.67408 26.1385 4.67408C24.9815 4.67408 23.8782 5.03792 22.9476 5.72652C22.7431 5.87773 22.4527 5.81063 22.3345 5.58427C19.699 0.534064 12.8155 -0.144127 9.24678 4.24911C7.74342 6.09991 7.15272 8.50751 7.62605 10.854C7.67821 11.1132 7.48113 11.3548 7.21946 11.3548H7.0532C3.62178 11.3548 0.829825 14.1644 0.829825 17.6176C0.829825 21.0708 3.62178 23.8804 7.0532 23.8804H9.54252C9.7716 23.8804 9.95742 24.0674 9.95742 24.2979C9.95742 24.5285 9.77161 24.7155 9.54252 24.7155H7.0532C3.16415 24.7155 0 21.5313 0 17.6176C0 13.8136 2.98898 10.6989 6.72751 10.5271C6.37633 8.09266 7.04787 5.63704 8.60429 3.72065C12.4251 -0.983317 19.7475 -0.456065 22.8428 4.7892C23.8303 4.1662 24.9603 3.83937 26.1383 3.83937C29.7414 3.83937 32.5964 6.92547 32.3466 10.531C36.0507 10.7401 39 13.8384 39 17.6173C39 21.5313 35.836 24.7151 31.947 24.7151Z" fill="#62BEC1"/>
<path d="M8.95433 24.0618C8.95433 29.8816 13.6593 34.6174 19.4442 34.6174C25.2292 34.6174 29.9341 29.8816 29.9341 24.0618C29.9341 18.242 25.2292 13.5062 19.4442 13.5062C13.6592 13.5062 8.95433 18.2421 8.95433 24.0618ZM10.0192 24.0618C10.0192 18.831 14.2481 14.5763 19.4442 14.5763C24.6403 14.5763 28.8692 18.8309 28.8692 24.0618C28.8692 29.2926 24.6403 33.5473 19.4442 33.5473C14.2481 33.5473 10.0192 29.2927 10.0192 24.0618Z" fill="#62BEC1" stroke="#62BEC1" stroke-width="0.234899"/>
<path d="M19.2131 28.2639C19.2131 28.4968 19.401 28.687 19.6343 28.687C19.8675 28.687 20.0555 28.4971 20.0555 28.2639V20.3163C20.0555 20.0834 19.8676 19.8932 19.6343 19.8932C19.401 19.8932 19.2131 20.0834 19.2131 20.3163V28.2639Z" fill="#62BEC1" stroke="#62BEC1" stroke-width="0.234899"/>
<path d="M19.6342 20.916L21.766 23.0614C21.8481 23.144 21.9564 23.1856 22.0641 23.1856L19.6342 20.916ZM19.6342 20.916L17.5024 23.0613L19.6342 20.916ZM22.3622 23.0614C22.5264 22.8961 22.5264 22.6287 22.3622 22.4635L19.9323 20.0181C19.7677 19.8526 19.5005 19.8524 19.3361 20.0181C19.336 20.0182 19.336 20.0182 19.336 20.0182L16.9061 22.4635C16.7419 22.6287 16.7419 22.8961 16.9061 23.0614C17.0706 23.227 17.3378 23.2271 17.5023 23.0614H22.3622ZM22.3622 23.0614C22.28 23.1444 22.1717 23.1856 22.0641 23.1856L22.3622 23.0614Z" fill="#62BEC1" stroke="#62BEC1" stroke-width="0.234899"/>
</g>
<defs>
<clipPath id="clip0_169_1921">
<rect width="39" height="34" fill="white" transform="translate(0 0.5)"/>
</clipPath>
</defs>
</svg>
