<svg width="18" height="18" viewBox="0 0 18 18" fill="none" xmlns="http://www.w3.org/2000/svg">
<circle cx="9" cy="9" r="9" fill="#FFBB00"/>
<g clip-path="url(#clip0_301_2587)">
<path d="M12.5 4.5H5.5C4.8372 4.50079 4.20178 4.76444 3.73311 5.23311C3.26444 5.70178 3.00079 6.3372 3 7H15C14.9992 6.3372 14.7356 5.70178 14.2669 5.23311C13.7982 4.76444 13.1628 4.50079 12.5 4.5V4.5Z" fill="#F3F4F8"/>
<path d="M3 10.9999C3.00079 11.6627 3.26444 12.2981 3.73311 12.7668C4.20178 13.2354 4.8372 13.4991 5.5 13.4999H12.5C13.1628 13.4991 13.7982 13.2354 14.2669 12.7668C14.7356 12.2981 14.9992 11.6627 15 10.9999V7.99988H3V10.9999ZM6.5 10.7499C6.5 10.8982 6.45601 11.0432 6.3736 11.1666C6.29119 11.2899 6.17406 11.386 6.03701 11.4428C5.89997 11.4995 5.74917 11.5144 5.60368 11.4855C5.4582 11.4565 5.32456 11.3851 5.21967 11.2802C5.11478 11.1753 5.04335 11.0417 5.01441 10.8962C4.98547 10.7507 5.00032 10.5999 5.05709 10.4629C5.11386 10.3258 5.20999 10.2087 5.33332 10.1263C5.45666 10.0439 5.60166 9.99988 5.75 9.99988C5.94891 9.99988 6.13968 10.0789 6.28033 10.2195C6.42098 10.3602 6.5 10.551 6.5 10.7499" fill="#F3F4F8"/>
</g>
<defs>
<clipPath id="clip0_301_2587">
<rect width="12" height="12" fill="white" transform="translate(3 3)"/>
</clipPath>
</defs>
</svg>
