<svg width="29" height="28" viewBox="0 0 29 28" fill="none" xmlns="http://www.w3.org/2000/svg">
<path d="M21.0357 12.5424C21.725 13.2317 22.3217 14.0677 22.7764 14.9566C22.9964 15.3867 22.8261 15.9139 22.3958 16.134C21.9655 16.354 21.4383 16.1837 21.2183 15.7534C20.8446 15.0227 20.3543 14.3358 19.7983 13.7798C16.8085 10.79 11.9612 10.79 8.97144 13.7798C8.39065 14.3605 7.91884 15.0136 7.55558 15.7318C7.33746 16.163 6.81106 16.3358 6.37984 16.1176C5.94862 15.8995 5.77587 15.3731 5.99398 14.9419C6.44059 14.0589 7.02164 13.2548 7.734 12.5424C11.4072 8.86916 17.3626 8.86916 21.0357 12.5424ZM18.5836 16.1227C19.1058 16.6449 19.5354 17.2862 19.8344 17.9686C20.0283 18.4112 19.8268 18.9272 19.3842 19.1211C18.9416 19.3151 18.4255 19.1135 18.2315 18.6709C18.0179 18.1834 17.7104 17.7243 17.3461 17.3601C15.7097 15.7235 13.0563 15.7235 11.4198 17.3601C11.0575 17.7224 10.7634 18.1636 10.548 18.6557C10.3543 19.0985 9.83838 19.3003 9.39566 19.1066C8.95294 18.9129 8.75108 18.397 8.94479 17.9542C9.24515 17.2677 9.66094 16.644 10.1823 16.1227C12.5023 13.8027 16.2637 13.8027 18.5836 16.1227ZM24.1894 9.65848C24.7833 10.2524 25.3441 10.9309 25.8322 11.6382C26.1067 12.0359 26.0069 12.5809 25.6092 12.8553C25.2115 13.1298 24.6665 13.0299 24.392 12.6322C23.9627 12.0102 23.4693 11.4132 22.952 10.8959C18.192 6.13584 10.4744 6.13584 5.71429 10.8959C5.22211 11.3881 4.73395 11.985 4.28859 12.627C4.01314 13.024 3.46797 13.1226 3.07091 12.8471C2.67384 12.5717 2.57527 12.0265 2.85072 11.6295C3.35257 10.9061 3.90605 10.2293 4.47686 9.65848C9.92034 4.215 18.746 4.215 24.1894 9.65848ZM15.5707 19.179C16.2543 19.8624 16.2543 20.9706 15.5707 21.6542C14.8873 22.3376 13.7791 22.3376 13.0956 21.6542C12.4121 20.9706 12.4121 19.8624 13.0956 19.179C13.7791 18.4954 14.8873 18.4954 15.5707 19.179Z" fill="#F3F4F8"/>
</svg>
