<svg width="28" height="28" viewBox="0 0 28 28" fill="none" xmlns="http://www.w3.org/2000/svg">
<g clip-path="url(#clip0_284_2173)">
<path d="M14.3992 12.7972H2.23291V1.80667C2.23291 0.809655 3.00265 0 3.95051 0H14.3992V12.7972ZM3.02809 11.9608H13.604V0.83642H3.95051C3.44159 0.83642 3.02809 1.27136 3.02809 1.80667V11.9608Z" fill="#373838"/>
<path d="M25.7671 12.7972H13.604V0H24.0909C25.0165 0 25.7671 0.789581 25.7671 1.76317V12.7939V12.7972ZM14.3992 11.9608H24.9719V1.76317C24.9719 1.25128 24.5775 0.83642 24.0909 0.83642H14.3992V11.9608Z" fill="#373838"/>
<path d="M14.3992 24.7547H2.23291V11.9608H14.3992V24.7547ZM3.02809 23.9183H13.604V12.7972H3.02809V23.9183Z" fill="#373838"/>
<path d="M25.7671 24.7547H13.604V11.9608H25.7671V24.7547ZM14.3992 23.9183H24.9719V12.7972H14.3992V23.9183Z" fill="#373838"/>
<path d="M28 27.9999H0V25.7015C0 24.7178 0.760195 23.9182 1.69851 23.9182H26.3047C27.2398 23.9182 28 24.7178 28 25.7015V27.9999ZM0.795183 27.1635H27.2048V25.7015C27.2048 25.1795 26.8009 24.7546 26.3047 24.7546H1.69851C1.20232 24.7546 0.795183 25.1795 0.795183 25.7015V27.1635Z" fill="#373838"/>
</g>
<defs>
<clipPath id="clip0_284_2173">
<rect width="28" height="28" fill="white"/>
</clipPath>
</defs>
</svg>
